<svg width="670" height="600" viewBox="0 0 670 600" fill="none" xmlns="http://www.w3.org/2000/svg">
<g clip-path="url(#clip0_13_28128)">
<rect width="669.281" height="600" fill="black"/>
<path fill-rule="evenodd" clip-rule="evenodd" d="M137.827 73.0226C136.981 112.735 131.599 148.427 123.345 174.839C118.838 189.262 113.492 200.861 107.602 208.832C101.698 216.823 95.3817 221 88.9444 221C82.5071 221 76.1906 216.823 70.2864 208.832C68.4771 206.383 66.719 203.592 65.0208 200.482C68.3145 184.697 72.0826 170.017 76.2592 156.652C84.3857 130.647 94.0414 109.675 104.717 95.2267C115.073 81.2093 126.263 73.4901 137.827 73.0226ZM137.848 72.021C137.912 68.7072 137.944 65.3659 137.944 62C137.944 17.8896 132.356 -22.0051 123.345 -50.8388C118.838 -65.2616 113.492 -76.8606 107.602 -84.8322C101.698 -92.8233 95.3817 -97 88.9444 -97C82.5071 -97 76.1906 -92.8233 70.2864 -84.8322C64.3967 -76.8606 59.0506 -65.2616 54.5435 -50.8388C45.533 -22.0051 39.9444 17.8896 39.9444 62C39.9444 106.11 45.533 146.005 54.5435 174.839C57.4655 184.189 60.7401 192.353 64.2868 199.11C64.1797 199.618 64.0731 200.127 63.967 200.637C49.0095 172.982 38.9444 121.253 38.9444 62C38.9444 -26.3656 61.3301 -98 88.9444 -98C116.559 -98 138.944 -26.3656 138.944 62C138.944 65.3586 138.912 68.693 138.848 72.0002C138.514 72.0013 138.181 72.0082 137.848 72.021ZM211.799 190.873C195.44 118.836 168.901 72 138.944 72L138.848 72.0002L138.842 72.3317C138.837 72.5547 138.833 72.7775 138.828 73.0002C138.494 73.0016 138.161 73.0091 137.827 73.0226C137.834 72.689 137.841 72.3551 137.848 72.021C107.216 73.1914 80.2663 123.33 64.2868 199.11C64.5302 199.574 64.7749 200.031 65.0208 200.482C64.9166 200.981 64.8129 201.481 64.7097 201.983C64.4608 201.541 64.2133 201.092 63.967 200.637C54.5967 245.69 49.0864 299.671 48.9471 357.743C22.9283 345.31 0.595913 329.802 -16.9625 317.609C-39.4758 301.975 -54.1405 291.792 -58.6641 300.528C-68.0202 318.596 -27.4958 359.48 39.8185 404.359C30.8011 420.52 25.9446 437.697 25.9446 455.504C25.9446 481.63 36.3993 480.454 55.1113 464.985C68.2241 572.125 100.815 648 138.944 648C178.157 648 211.512 567.754 223.847 455.78C225.284 454.247 226.695 452.697 228.096 451.159C235.262 443.286 242.171 435.698 251.047 431.935C252.009 431.978 252.975 432 253.944 432C259.297 432 264.542 431.335 269.638 430.061C273.439 430.726 277.569 431.984 282.099 433.946C280.042 451.487 278.944 469.946 278.944 489C278.944 604.427 319.238 698 368.944 698C393.92 698 416.519 674.375 432.825 636.223C463.99 628.347 500.562 611.109 537.917 586.063C547.866 602.738 558.873 612 570.452 612C594.729 612 616.496 571.283 631.255 506.89C700.402 433.542 732.304 356.85 703.362 323.393C692.395 310.716 674.027 305.79 650.952 307.709L650.952 307C650.952 265.58 648.773 226.089 644.825 190.082C673.178 168.813 689.944 142.494 689.944 114C689.944 68.7697 647.698 29.0187 583.922 6.25133C579.767 3.59914 575.504 2.1531 571.159 2.01151C538.066 -8.19024 499.977 -14 459.444 -14C332.142 -14 228.944 43.3076 228.944 114C228.944 134.806 237.883 154.453 253.746 171.82C253.642 173.201 253.545 174.595 253.455 176.002C238.409 176.116 224.237 181.48 211.799 190.873ZM212.041 191.944L211.91 191.363L211.799 190.873C211.507 191.094 211.215 191.316 210.925 191.542C208.117 179.126 205.007 167.459 201.629 156.652C193.503 130.647 183.847 109.675 173.172 95.2267C162.482 80.7584 150.905 73 138.944 73L138.828 73.0002C137.062 156.235 115.403 222 88.9444 222C80.1514 222 71.8885 214.737 64.7097 201.983C55.4746 246.847 50.0554 300.508 49.9461 358.218L49.6234 358.065C49.3977 357.958 49.1723 357.851 48.9471 357.743C48.9453 358.495 48.9444 359.247 48.9444 360C48.9444 369.992 49.1034 379.865 49.4138 389.594C45.8271 394.41 42.6217 399.336 39.8185 404.359C43.2654 406.658 46.7826 408.966 50.367 411.283C51.4106 429.863 53.0111 447.825 55.1113 464.985C55.414 464.735 55.7188 464.481 56.0258 464.223C60.5841 501.733 67.5293 535.413 76.2592 563.349C84.3857 589.353 94.0414 610.325 104.717 624.773C115.406 639.242 126.984 647 138.944 647C150.905 647 162.482 639.242 173.172 624.773C183.847 610.325 193.503 589.353 201.629 563.349C210.917 533.628 218.185 497.406 222.707 456.987C223.089 456.587 223.469 456.184 223.847 455.78C224.917 446.072 225.828 436.126 226.572 425.973C234.327 429.49 242.538 431.552 251.047 431.935C251.861 431.59 252.692 431.277 253.541 430.999C253.675 431 253.81 431 253.944 431C258.325 431 262.635 430.547 266.852 429.672C267.761 429.766 268.689 429.895 269.638 430.061C274.303 428.894 278.844 427.216 283.232 425.07C282.827 428.001 282.449 430.96 282.099 433.946C282.416 434.084 282.735 434.225 283.057 434.369C281.027 451.776 279.944 470.092 279.944 489C279.944 546.611 290.002 598.72 306.223 636.39C314.334 655.226 323.967 670.406 334.613 680.862C345.254 691.314 356.854 697 368.944 697C381.034 697 392.634 691.314 403.275 680.862C413.895 670.431 423.507 655.3 431.606 636.527C432.011 636.427 432.418 636.326 432.825 636.223C432.989 635.839 433.153 635.453 433.316 635.066C438.442 633.75 443.717 632.18 449.122 630.362C476.252 621.237 506.554 605.892 537.407 585.201C537.577 585.49 537.747 585.778 537.917 586.063C538.194 585.877 538.471 585.691 538.748 585.504C539.152 586.183 539.558 586.849 539.966 587.502C549.554 602.868 559.883 611 570.452 611C581.021 611 591.35 602.868 600.938 587.502C610.493 572.189 619.135 549.964 626.407 522.412C627.609 517.858 628.774 513.159 629.898 508.324C630.352 507.846 630.805 507.368 631.255 506.89C631.402 506.25 631.548 505.608 631.693 504.964C659.479 475.295 681.127 445.138 695.081 417.593C705.232 397.557 711.288 378.949 712.706 362.945C714.123 346.946 710.901 333.637 702.605 324.047C694.31 314.458 681.604 309.354 665.567 308.453C660.953 308.194 656.071 308.283 650.951 308.713C650.951 308.378 650.952 308.044 650.952 307.709C650.619 307.737 650.286 307.766 649.952 307.797C649.952 307.531 649.952 307.266 649.952 307C649.952 265.834 647.798 226.582 643.895 190.775C644.206 190.544 644.517 190.313 644.825 190.082C644.783 189.697 644.741 189.312 644.698 188.927C672.601 167.845 688.944 141.914 688.944 114C688.944 79.1821 663.518 47.4499 621.947 24.3646C611.28 18.4411 599.563 13.0958 586.964 8.42247C585.957 7.62696 584.943 6.90276 583.922 6.25133C579.758 4.76456 575.501 3.35023 571.159 2.01151C570.923 2.00385 570.688 2 570.452 2C569.664 2 568.88 2.04285 568.097 2.12798C535.761 -7.51997 498.764 -13 459.444 -13C395.93 -13 338.479 1.29816 296.941 24.3646C255.37 47.4499 229.944 79.1821 229.944 114C229.944 134.22 238.519 153.4 253.852 170.449C253.815 170.905 253.78 171.362 253.746 171.82C255.069 173.269 256.441 174.702 257.859 176.119C256.561 176.04 255.256 176 253.944 176C253.781 176 253.618 176.001 253.455 176.002C253.434 176.335 253.413 176.668 253.393 177.002C238.478 177.132 224.401 182.508 212.041 191.944ZM226.578 294.11C223.844 256.726 218.834 222.145 212.041 191.944C211.749 192.167 211.458 192.392 211.168 192.62C211.087 192.26 211.006 191.9 210.925 191.542C182.935 213.245 163.944 255.468 163.944 304C163.944 306.682 164.002 309.344 164.116 311.985C125.98 326.147 93.8055 344.875 70.1253 366.763C63.1823 364.177 56.4502 361.295 49.9461 358.218C49.9449 358.812 49.9444 359.406 49.9444 360C49.9444 369.556 50.09 379.003 50.3744 388.319C50.0512 388.743 49.731 389.168 49.4138 389.594C49.6471 396.908 49.9659 404.141 50.367 411.283C50.7129 411.506 51.0594 411.73 51.4065 411.954C52.4366 430.025 53.9941 447.505 56.0258 464.223C64.8477 456.819 75.4461 446.372 87.6003 434.19C104.843 444.307 123.149 454.418 142.27 464.319C187.26 487.616 206.829 473.65 222.707 456.987C223.852 446.756 224.821 436.256 225.602 425.524C225.747 425.592 225.892 425.66 226.037 425.728L226.174 425.791L226.323 425.859C226.406 425.897 226.489 425.935 226.572 425.973C226.598 425.618 226.624 425.263 226.649 424.908C235.139 428.811 244.176 430.939 253.541 430.999C257.518 429.697 261.896 429.161 266.852 429.672C272.557 428.487 278.091 426.529 283.4 423.87C283.344 424.27 283.288 424.669 283.232 425.07C283.595 424.892 283.957 424.711 284.317 424.528C283.863 427.774 283.443 431.055 283.057 434.369C303.137 443.397 330.968 466.083 372.43 511.781C343.442 559.72 335.081 602.303 354.712 624.996C369.325 641.889 397.081 645.019 431.606 636.527C431.626 636.481 431.645 636.435 431.665 636.39C431.81 636.052 431.955 635.714 432.1 635.374C432.504 635.273 432.909 635.17 433.316 635.066C449.172 597.388 458.944 545.844 458.944 489C458.944 463.539 456.983 439.141 453.394 416.576C458.113 412.2 462.961 407.858 467.932 403.558C476.072 396.516 484.279 389.816 492.503 383.476C498.647 473.62 515.396 547.61 537.407 585.201L537.761 584.963C537.921 584.856 538.08 584.749 538.239 584.642C538.408 584.931 538.578 585.219 538.748 585.504C556.09 573.826 573.593 560.469 590.796 545.588C604.847 533.432 617.921 520.932 629.898 508.324C630.047 507.686 630.194 507.045 630.341 506.402C630.794 505.922 631.244 505.443 631.693 504.964C633.767 495.764 635.699 486.091 637.476 475.994C643.659 476.216 646.945 470.15 646.945 455.504C646.945 447.358 645.928 439.343 643.962 431.498C648.396 393.972 650.887 352.431 650.951 308.713C650.618 308.741 650.285 308.77 649.951 308.801C649.951 308.466 649.952 308.131 649.952 307.797C625.02 310.07 594.701 320.227 562.331 337.146C541.494 324.876 517.453 314.303 490.953 305.84C490.975 283.462 491.633 261.655 492.863 240.664C554.465 235.696 608.172 217.199 643.895 190.775C643.853 190.391 643.811 190.007 643.769 189.624C644.08 189.392 644.39 189.16 644.698 188.927C634.581 97.7159 613.098 29.0639 586.964 8.42247C585.809 7.99391 584.646 7.57101 583.476 7.15382C579.376 4.51908 575.205 3.11786 570.994 3.00713C570.033 2.71035 569.067 2.41729 568.097 2.12798C530.785 6.18869 499.834 106.446 491.916 239.737C481.309 240.569 470.468 241 459.444 241C453.129 241 446.874 240.859 440.689 240.581C441.941 228.923 442.599 216.855 442.599 204.496C442.599 168.119 419.769 192.375 394.345 219.386L394.344 219.388C389.939 224.068 385.455 228.832 380.999 233.376C361.406 229.428 343.059 224.042 326.374 217.453C326.62 190.004 331.85 147.29 344.099 83.496C288.312 57.1399 259.924 93.7563 253.852 170.449C255.61 172.405 257.458 174.333 259.392 176.231C258.882 176.187 258.371 176.15 257.859 176.119C258.221 176.48 258.585 176.839 258.952 177.198C257.294 177.067 255.624 177 253.944 177C253.76 177 253.576 177.001 253.393 177.002C252.861 185.698 252.599 194.873 252.599 204.496C252.599 234.556 256.488 262.895 263.364 287.805C250.786 289.491 238.507 291.602 226.578 294.11ZM227.894 315.868C227.541 308.52 227.101 301.264 226.578 294.11C226.249 294.179 225.92 294.249 225.591 294.319C222.875 257.113 217.904 222.694 211.168 192.62C203.796 198.4 197.051 205.634 191.123 214.066C174.968 237.041 164.944 268.835 164.944 304C164.944 306.559 164.997 309.099 165.102 311.62C164.773 311.741 164.445 311.863 164.116 311.985C164.783 327.376 167.361 342.031 171.518 355.475C161.996 363.254 152.823 371.254 144.034 379.257C117.549 380.48 92.7196 375.181 70.1253 366.763C62.6743 373.651 56.0644 380.85 50.3744 388.319C50.618 396.298 50.9635 404.18 51.4065 411.954C62.8301 419.315 74.9278 426.754 87.6003 434.19C89.5347 432.25 91.5086 430.268 93.521 428.246L93.5365 428.23C108.39 413.308 125.342 396.277 144.034 379.257C155.257 378.739 166.777 377.05 178.551 373.93C189.576 397.925 206.112 416.334 225.602 425.524C225.628 425.167 225.654 424.81 225.679 424.453C226.002 424.607 226.325 424.759 226.649 424.908C228.151 404.047 228.944 382.32 228.944 360C228.944 357.092 228.931 354.195 228.904 351.308C249.091 342.808 266.969 337.958 282.786 336.101C287.606 344.625 292.894 352.211 298.57 358.704C291.956 377.944 286.774 399.956 283.4 423.87C283.764 423.688 284.127 423.502 284.489 423.314C284.431 423.718 284.374 424.122 284.317 424.528C301.269 415.886 315.867 400.216 326.376 379.988C333.2 382.938 340.303 384.496 347.599 384.496C356.538 384.496 365.188 382.157 373.389 377.784C390.807 405.979 397.135 443.404 398.144 474.768C388.342 487.29 379.732 499.706 372.43 511.781L372.634 512.007C372.799 512.189 372.965 512.372 373.131 512.555C369.4 518.737 366.016 524.828 362.992 530.797C352.841 550.832 346.785 569.44 345.368 585.444C343.95 601.443 347.173 614.753 355.468 624.342C363.763 633.931 376.47 639.035 392.507 639.936C404.152 640.59 417.509 639.022 432.1 635.374C448.066 597.786 457.944 546.095 457.944 489C457.944 463.834 456.025 439.717 452.511 417.396C452.805 417.122 453.099 416.849 453.394 416.576C453.331 416.18 453.267 415.784 453.203 415.389C457.777 411.159 462.47 406.96 467.277 402.801C475.606 395.597 484.005 388.749 492.422 382.276C492.449 382.676 492.476 383.076 492.503 383.476C492.821 383.231 493.139 382.987 493.456 382.743C497.082 436.457 504.475 484.44 514.497 522.412C521.328 548.294 529.368 569.475 538.239 584.642C555.528 572.996 572.982 559.675 590.142 544.831C604.629 532.299 618.073 519.402 630.341 506.402C632.548 496.75 634.598 486.566 636.476 475.907C636.817 475.953 637.15 475.982 637.476 475.994C639.949 461.94 642.123 447.065 643.962 431.498C643.741 430.616 643.508 429.737 643.263 428.859C647.505 392.068 649.885 351.478 649.951 308.801C637.524 309.943 623.72 313.06 608.951 318.027C594.516 322.883 579.181 329.499 563.344 337.745C563.007 337.545 562.67 337.345 562.331 337.146C546.669 345.332 530.526 355.101 514.282 366.325C506.967 360.011 499.422 353.774 491.664 347.724C491.194 334.403 490.952 320.809 490.952 307C490.952 306.613 490.952 306.227 490.953 305.84C490.62 305.734 490.287 305.628 489.953 305.522C489.981 283.287 490.637 261.614 491.857 240.744C492.192 240.718 492.528 240.692 492.863 240.664C492.883 240.328 492.903 239.992 492.923 239.656C543.022 235.598 587.847 222.572 621.947 203.635C629.821 199.263 637.116 194.58 643.769 189.624C639.696 152.684 633.759 119.443 626.407 91.5876C619.135 64.0356 610.493 41.8108 600.938 26.4978C595.337 17.5216 589.483 11.0139 583.476 7.15382C579.402 5.70119 575.239 4.31795 570.994 3.00713C570.813 3.00238 570.633 3 570.452 3C559.883 3 549.554 11.1322 539.966 26.4978C530.411 41.8108 521.769 64.0356 514.497 91.5876C503.955 131.528 496.323 182.544 492.923 239.656C492.587 239.684 492.252 239.71 491.916 239.737C491.896 240.072 491.876 240.408 491.857 240.744C481.266 241.572 470.445 242 459.444 242C453.093 242 446.802 241.857 440.581 241.578C440.617 241.246 440.654 240.914 440.689 240.581C419.882 239.649 399.863 237.178 380.999 233.376C380.772 233.608 380.545 233.839 380.319 234.069L380.163 234.227C360.895 230.308 342.833 225.002 326.367 218.525C326.368 218.234 326.37 217.942 326.372 217.647L326.374 217.453C323.499 216.318 320.673 215.147 317.899 213.941C302.781 192.226 282.234 178.17 259.392 176.231C259.771 176.603 260.154 176.974 260.54 177.344C260.012 177.289 259.483 177.24 258.952 177.198C273.836 191.728 293.694 204.481 317.24 214.744C320.7 219.74 323.872 225.143 326.719 230.9C327.856 247.732 331.667 256.328 337.258 259.254C339.265 266.856 340.777 274.806 341.735 283.025C339.975 283.008 338.212 283 336.445 283C311.273 283 286.8 284.664 263.364 287.805C264.245 290.994 265.174 294.126 266.15 297.199C253.062 302.343 240.291 308.681 227.894 315.868ZM226.92 316.434C226.566 308.964 226.121 301.588 225.591 294.319C204.19 298.864 183.926 304.687 165.102 311.62C165.736 326.9 168.265 341.447 172.354 354.793C172.075 355.021 171.796 355.248 171.518 355.475C173.511 361.923 175.868 368.092 178.551 373.93C178.877 373.844 179.204 373.756 179.531 373.668C182.904 380.987 186.793 387.777 191.123 393.935C200.756 407.636 212.548 418.176 225.679 424.453C227.161 403.736 227.944 382.162 227.944 360C227.944 357.234 227.932 354.477 227.908 351.729C228.241 351.588 228.573 351.447 228.904 351.308C228.793 339.295 228.452 327.467 227.894 315.868C227.569 316.056 227.245 316.245 226.92 316.434ZM226.92 316.434C227.469 327.987 227.802 339.766 227.908 351.729C216.388 356.63 204.12 362.713 191.059 370.099C187.191 371.445 183.347 372.632 179.531 373.668C176.783 367.708 174.378 361.397 172.354 354.793C189.496 340.843 207.757 327.631 226.92 316.434ZM341.742 283.085C339.98 283.029 338.214 283 336.445 283C312.268 283 288.737 288.322 266.15 297.199C270.726 311.602 276.337 324.693 282.786 336.101C291.761 335.047 300.073 334.957 307.766 335.711C304.46 342.828 301.386 350.515 298.57 358.704C298.823 358.993 299.077 359.28 299.332 359.566C292.892 378.424 287.825 399.947 284.489 423.314C296.706 416.938 307.693 406.838 316.766 393.935C319.905 389.47 322.812 384.673 325.46 379.582C325.765 379.72 326.07 379.855 326.376 379.988C331.872 369.408 336.25 357.582 339.261 344.862C353.73 352.447 364.882 364.015 373.389 377.784C392.097 367.808 408.467 347.249 420.582 319.731C424.523 326.315 428.231 333.635 431.665 341.61C440.674 362.532 447.782 387.907 452.322 416.206C431.657 435.399 413.449 455.214 398.144 474.768C398.161 475.291 398.176 475.813 398.19 476.334C388.649 488.593 380.259 500.74 373.131 512.555C379.128 519.178 385.41 526.281 391.993 533.89C395.483 527.151 398.938 504.285 398.19 476.334C413.49 456.675 431.748 436.726 452.511 417.396C452.448 416.998 452.385 416.602 452.322 416.206C452.615 415.933 452.909 415.661 453.203 415.389C446.844 376.152 435.548 342.531 421.073 318.607C422.861 314.48 424.553 310.199 426.145 305.776C448.847 316.903 470.453 331.265 490.635 346.924C491.05 358.942 491.65 370.74 492.422 382.276C492.74 382.032 493.058 381.788 493.376 381.545C493.402 381.945 493.429 382.344 493.456 382.743C500.658 377.216 507.871 371.965 515.063 367.001C539.267 387.959 560.925 409.717 579.353 428.23C605.607 454.606 625.306 474.397 636.476 475.907C639.085 461.091 641.361 445.357 643.263 428.859C633.511 393.915 604.88 362.437 563.344 337.745C547.618 345.933 531.395 355.728 515.063 367.001C514.803 366.776 514.543 366.55 514.282 366.325C507.322 371.135 500.344 376.211 493.376 381.545C492.643 370.499 492.069 359.213 491.664 347.724C491.322 347.457 490.979 347.19 490.635 346.924C490.185 333.858 489.952 320.532 489.952 307C489.952 306.718 489.952 306.436 489.952 306.155L489.953 305.522C471.38 299.642 451.609 294.796 430.893 291.126C435.334 275.828 438.636 259.175 440.581 241.578C419.514 240.63 399.247 238.109 380.163 234.227C364.195 250.426 348.664 263.573 338.428 259.774C335.503 248.48 331.492 237.933 326.572 228.391C326.422 225.355 326.352 222.07 326.367 218.525C323.859 217.539 321.389 216.525 318.957 215.486C318.607 214.967 318.255 214.452 317.899 213.941C317.305 213.683 316.713 213.423 316.124 213.161C301.503 192.782 282.051 179.597 260.54 177.344C270.57 186.96 282.825 195.796 296.941 203.635C303.006 207.003 309.411 210.185 316.124 213.161C316.339 213.461 316.553 213.763 316.766 214.066C316.924 214.291 317.082 214.517 317.24 214.744C317.81 214.993 318.382 215.24 318.957 215.486C321.688 219.542 324.233 223.853 326.572 228.391C326.615 229.247 326.664 230.083 326.719 230.9C331.023 239.606 334.581 249.12 337.258 259.254C337.639 259.453 338.029 259.627 338.428 259.774C340.357 267.227 341.813 275.005 342.743 283.035C342.407 283.031 342.071 283.028 341.735 283.025L341.742 283.085ZM342.753 283.12L342.743 283.035C346.197 283.073 349.638 283.142 353.064 283.243C352.692 283.397 352.32 283.556 351.949 283.721C348.895 283.439 345.829 283.237 342.753 283.12ZM343.3 288.606C346.127 286.658 349.013 285.024 351.949 283.721C352.647 283.785 353.344 283.854 354.04 283.927C350.419 285.364 346.866 287.317 343.393 289.759C343.363 289.375 343.332 288.99 343.3 288.606ZM342.443 290.442C342.759 290.21 343.076 289.983 343.393 289.759C343.757 294.435 343.944 299.186 343.944 304C343.944 318.288 342.298 332.03 339.261 344.862C338.957 344.703 338.652 344.545 338.345 344.389C341.327 331.705 342.944 318.125 342.944 304C342.944 299.419 342.774 294.896 342.443 290.442ZM342.443 290.442C339.782 292.39 337.169 294.626 334.613 297.138C325.081 306.5 316.361 319.649 308.818 335.82C308.469 335.781 308.118 335.745 307.766 335.711C317.53 314.685 329.308 298.628 342.352 289.273C342.383 289.662 342.414 290.052 342.443 290.442ZM355.647 283.324C354.787 283.295 353.926 283.268 353.064 283.243C358.219 281.112 363.526 280 368.944 280C376.042 280 382.948 281.908 389.572 285.515C388.681 285.43 387.789 285.347 386.896 285.266C381.079 282.462 375.074 281 368.944 281C364.435 281 359.995 281.791 355.647 283.324ZM386.896 285.266C391.765 287.612 396.502 290.899 401.073 295.055C385.781 289.493 370.073 285.604 354.04 283.927C354.574 283.715 355.11 283.514 355.647 283.324C366.215 283.683 376.64 284.335 386.896 285.266ZM401.073 295.055C401.812 295.727 402.546 296.421 403.275 297.138C409.413 303.167 415.215 310.766 420.582 319.731C420.746 319.358 420.91 318.983 421.073 318.607C415.63 309.611 409.737 301.986 403.488 295.949C411.15 298.832 418.706 302.13 426.145 305.776C427.846 301.049 429.431 296.161 430.893 291.126C417.492 288.751 403.695 286.868 389.572 285.515C394.37 288.128 399.02 291.632 403.488 295.949C402.684 295.646 401.879 295.349 401.073 295.055ZM343.3 288.606C342.983 288.825 342.667 289.047 342.352 289.273C342.183 287.195 341.98 285.131 341.742 283.085C341.919 283.09 342.096 283.096 342.272 283.103C342.432 283.108 342.593 283.114 342.753 283.12C342.962 284.936 343.145 286.765 343.3 288.606ZM338.345 344.389C329.712 340.006 319.916 337.027 308.818 335.82C307.937 337.709 307.071 339.64 306.223 341.61C303.782 347.279 301.481 353.274 299.332 359.566C307.358 368.554 316.143 375.368 325.46 379.582C330.965 368.998 335.345 357.147 338.345 344.389Z" fill="white"/>
</g>
<defs>
<clipPath id="clip0_13_28128">
<rect width="669.281" height="600" fill="white"/>
</clipPath>
</defs>
</svg>
