<svg width="670" height="600" viewBox="0 0 670 600" fill="none" xmlns="http://www.w3.org/2000/svg">
<rect width="669.281" height="600" fill="black"/>
<circle cx="45.0981" cy="46.4052" r="3.26797" fill="white"/>
<circle cx="358.824" cy="45.7516" r="3.26797" fill="white"/>
<circle cx="201.961" cy="47.0588" r="3.26797" fill="white"/>
<circle cx="515.686" cy="46.4052" r="3.26797" fill="white"/>
<circle cx="45.0981" cy="246.405" r="3.26797" fill="white"/>
<circle cx="358.824" cy="245.752" r="3.26797" fill="white"/>
<circle cx="201.961" cy="247.059" r="3.26797" fill="white"/>
<circle cx="515.686" cy="246.405" r="3.26797" fill="white"/>
<circle cx="45.0981" cy="446.405" r="3.26797" fill="white"/>
<circle cx="358.824" cy="445.752" r="3.26797" fill="white"/>
<circle cx="201.961" cy="447.059" r="3.26797" fill="white"/>
<circle cx="515.686" cy="446.405" r="3.26797" fill="white"/>
<circle cx="45.0981" cy="98.6928" r="3.26797" fill="white"/>
<circle cx="358.824" cy="98.0392" r="3.26797" fill="white"/>
<circle cx="201.961" cy="99.3464" r="3.26797" fill="white"/>
<circle cx="515.686" cy="98.6928" r="3.26797" fill="white"/>
<circle cx="45.0981" cy="298.693" r="3.26797" fill="white"/>
<circle cx="358.824" cy="298.039" r="3.26797" fill="white"/>
<circle cx="201.961" cy="299.346" r="3.26797" fill="white"/>
<circle cx="515.686" cy="298.693" r="3.26797" fill="white"/>
<circle cx="45.0981" cy="498.693" r="3.26797" fill="white"/>
<circle cx="358.824" cy="498.039" r="3.26797" fill="white"/>
<circle cx="201.961" cy="499.346" r="3.26797" fill="white"/>
<circle cx="515.686" cy="498.693" r="3.26797" fill="white"/>
<circle cx="45.0981" cy="150.98" r="3.26797" fill="white"/>
<circle cx="358.824" cy="150.327" r="3.26797" fill="white"/>
<circle cx="201.961" cy="151.634" r="3.26797" fill="white"/>
<circle cx="515.686" cy="150.98" r="3.26797" fill="white"/>
<circle cx="45.0981" cy="350.98" r="3.26797" fill="white"/>
<circle cx="358.824" cy="350.327" r="3.26797" fill="white"/>
<circle cx="201.961" cy="351.634" r="3.26797" fill="white"/>
<circle cx="515.686" cy="350.98" r="3.26797" fill="white"/>
<circle cx="45.0981" cy="550.98" r="3.26797" fill="white"/>
<circle cx="358.824" cy="550.327" r="3.26797" fill="white"/>
<circle cx="201.961" cy="551.634" r="3.26797" fill="white"/>
<circle cx="515.686" cy="550.98" r="3.26797" fill="white"/>
<circle cx="97.3861" cy="46.4052" r="3.26797" fill="white"/>
<circle cx="411.111" cy="45.7516" r="3.26797" fill="white"/>
<circle cx="254.248" cy="47.0588" r="3.26797" fill="white"/>
<circle cx="567.974" cy="46.4052" r="3.26797" fill="white"/>
<circle cx="97.3861" cy="246.405" r="3.26797" fill="white"/>
<circle cx="411.111" cy="245.752" r="3.26797" fill="white"/>
<circle cx="254.248" cy="247.059" r="3.26797" fill="white"/>
<circle cx="567.974" cy="246.405" r="3.26797" fill="white"/>
<circle cx="97.3861" cy="446.405" r="3.26797" fill="white"/>
<circle cx="411.111" cy="445.752" r="3.26797" fill="white"/>
<circle cx="254.248" cy="447.059" r="3.26797" fill="white"/>
<circle cx="567.974" cy="446.405" r="3.26797" fill="white"/>
<circle cx="97.3861" cy="98.6928" r="3.26797" fill="white"/>
<circle cx="411.111" cy="98.0392" r="3.26797" fill="white"/>
<circle cx="254.248" cy="99.3464" r="3.26797" fill="white"/>
<circle cx="567.974" cy="98.6928" r="3.26797" fill="white"/>
<circle cx="97.3861" cy="298.693" r="3.26797" fill="white"/>
<circle cx="411.111" cy="298.039" r="3.26797" fill="white"/>
<circle cx="254.248" cy="299.346" r="3.26797" fill="white"/>
<circle cx="567.974" cy="298.693" r="3.26797" fill="white"/>
<circle cx="97.3861" cy="498.693" r="3.26797" fill="white"/>
<circle cx="411.111" cy="498.039" r="3.26797" fill="white"/>
<circle cx="254.248" cy="499.346" r="3.26797" fill="white"/>
<circle cx="567.974" cy="498.693" r="3.26797" fill="white"/>
<circle cx="97.3861" cy="150.98" r="3.26797" fill="white"/>
<circle cx="411.111" cy="150.327" r="3.26797" fill="white"/>
<circle cx="254.248" cy="151.634" r="3.26797" fill="white"/>
<circle cx="567.974" cy="150.98" r="3.26797" fill="white"/>
<circle cx="97.3861" cy="350.98" r="3.26797" fill="white"/>
<circle cx="411.111" cy="350.327" r="3.26797" fill="white"/>
<circle cx="254.248" cy="351.634" r="3.26797" fill="white"/>
<circle cx="567.974" cy="350.98" r="3.26797" fill="white"/>
<circle cx="97.3861" cy="550.98" r="3.26797" fill="white"/>
<circle cx="411.111" cy="550.327" r="3.26797" fill="white"/>
<circle cx="254.248" cy="551.634" r="3.26797" fill="white"/>
<circle cx="567.974" cy="550.98" r="3.26797" fill="white"/>
<circle cx="149.673" cy="46.4052" r="3.26797" fill="white"/>
<circle cx="463.399" cy="45.7516" r="3.26797" fill="white"/>
<circle cx="306.536" cy="47.0588" r="3.26797" fill="white"/>
<circle cx="620.261" cy="46.4052" r="3.26797" fill="white"/>
<circle cx="149.673" cy="246.405" r="3.26797" fill="white"/>
<circle cx="463.399" cy="245.752" r="3.26797" fill="white"/>
<circle cx="306.536" cy="247.059" r="3.26797" fill="white"/>
<circle cx="620.261" cy="246.405" r="3.26797" fill="white"/>
<circle cx="149.673" cy="446.405" r="3.26797" fill="white"/>
<circle cx="463.399" cy="445.752" r="3.26797" fill="white"/>
<circle cx="306.536" cy="447.059" r="3.26797" fill="white"/>
<circle cx="620.261" cy="446.405" r="3.26797" fill="white"/>
<circle cx="149.673" cy="98.6928" r="3.26797" fill="white"/>
<circle cx="463.399" cy="98.0392" r="3.26797" fill="white"/>
<circle cx="306.536" cy="99.3464" r="3.26797" fill="white"/>
<circle cx="620.261" cy="98.6928" r="3.26797" fill="white"/>
<circle cx="149.673" cy="298.693" r="3.26797" fill="white"/>
<circle cx="463.399" cy="298.039" r="3.26797" fill="white"/>
<circle cx="306.536" cy="299.346" r="3.26797" fill="white"/>
<circle cx="620.261" cy="298.693" r="3.26797" fill="white"/>
<circle cx="149.673" cy="498.693" r="3.26797" fill="white"/>
<circle cx="463.399" cy="498.039" r="3.26797" fill="white"/>
<circle cx="306.536" cy="499.346" r="3.26797" fill="white"/>
<circle cx="620.261" cy="498.693" r="3.26797" fill="white"/>
<circle cx="149.673" cy="150.98" r="3.26797" fill="white"/>
<circle cx="463.399" cy="150.327" r="3.26797" fill="white"/>
<circle cx="306.536" cy="151.634" r="3.26797" fill="white"/>
<circle cx="620.261" cy="150.98" r="3.26797" fill="white"/>
<circle cx="149.673" cy="350.98" r="3.26797" fill="white"/>
<circle cx="463.399" cy="350.327" r="3.26797" fill="white"/>
<circle cx="306.536" cy="351.634" r="3.26797" fill="white"/>
<circle cx="620.261" cy="350.98" r="3.26797" fill="white"/>
<circle cx="149.673" cy="550.98" r="3.26797" fill="white"/>
<circle cx="463.399" cy="550.327" r="3.26797" fill="white"/>
<circle cx="306.536" cy="551.634" r="3.26797" fill="white"/>
<circle cx="620.261" cy="550.98" r="3.26797" fill="white"/>
<path d="M45.4248 99.0196H97.3856M97.3856 99.0196V46.4052H45.4248V151.307H97.3856V99.0196ZM97.3856 99.0196H97.7124M97.7124 99.0196H150V151.307L97.7124 99.0196ZM97.7124 99.0196L150.327 46.4052L202.941 99.0196H254.575M254.575 99.0196V46.4052H202.941L255.392 98.8562M254.575 99.0196V151.307H307.843L255.392 98.8562M255.392 98.8562L306.536 47.7124V99.0196H359.804L412.091 151.307V98.8562H463.725V46.4052H412.091L464.706 99.0196H515.686M515.686 99.0196V98.6928M515.686 99.0196L567.974 151.307H621.242V98.8562L567.974 45.5882V98.8562L620.425 46.4052M515.686 98.6928V46.4052H567.974L515.686 98.6928Z" stroke="white" stroke-width="0.653595"/>
<path d="M45.0977 350.98H98.0388L150.326 298.693H98.0388V246.732H202.614L254.575 298.693H202.614V350.98H150.326L254.575 246.732L306.536 298.693H358.823M358.823 298.693H359.804L412.091 350.98H306.536L358.823 298.693ZM358.823 298.693H412.091V246.732H464.052V298.693H568.3M568.3 298.693V350.98H516.339V246.732H568.3V298.366M568.3 298.693H619.934V246.732L568.3 298.366M568.3 298.693V298.366M568.3 298.693L620.588 350.98" stroke="white" stroke-width="0.653595"/>
<path d="M45.0977 447.059V551.634L97.3852 499.346H149.346M149.346 499.346L201.634 447.059M149.346 499.346V447.059H201.634M149.346 499.346H201.634M201.634 447.059V499.346M201.634 447.059H254.575V499.346M201.634 499.346H254.575M201.634 499.346L149.346 551.634H201.634V499.346ZM201.634 499.346L254.575 552.288V499.346M254.575 499.346H306.862M306.862 499.346V551.634H359.15L306.862 499.346ZM306.862 499.346L359.15 447.059H411.438L462.745 498.366H411.438M411.438 498.366H357.516L411.438 552.288V498.366ZM411.438 498.366L465.032 444.771L516.013 499.346V551.634H568.954V498.366H620.261L567.647 445.752H620.261V552.288" stroke="white" stroke-width="0.653595"/>
<line x1="45.4245" y1="149.673" x2="45.4245" y2="247.059" stroke="white" stroke-width="0.653595"/>
<line x1="45.4245" y1="347.712" x2="45.4245" y2="445.098" stroke="white" stroke-width="0.653595"/>
<line x1="97.7116" y1="150.327" x2="97.7116" y2="247.712" stroke="white" stroke-width="0.653595"/>
<line x1="97.7116" y1="348.366" x2="97.7116" y2="445.752" stroke="white" stroke-width="0.653595"/>
<line x1="150" y1="151.634" x2="150" y2="249.02" stroke="white" stroke-width="0.653595"/>
<line x1="150" y1="349.673" x2="150" y2="447.059" stroke="white" stroke-width="0.653595"/>
<line x1="202.287" y1="152.941" x2="202.287" y2="250.327" stroke="white" stroke-width="0.653595"/>
<line x1="202.287" y1="350.98" x2="202.287" y2="448.366" stroke="white" stroke-width="0.653595"/>
<line x1="254.575" y1="154.248" x2="254.575" y2="251.634" stroke="white" stroke-width="0.653595"/>
<line x1="254.575" y1="352.288" x2="254.575" y2="449.673" stroke="white" stroke-width="0.653595"/>
<line x1="306.862" y1="155.556" x2="306.862" y2="252.941" stroke="white" stroke-width="0.653595"/>
<line x1="306.862" y1="353.595" x2="306.862" y2="450.98" stroke="white" stroke-width="0.653595"/>
<line x1="359.15" y1="150.327" x2="359.15" y2="247.712" stroke="white" stroke-width="0.653595"/>
<line x1="359.15" y1="348.366" x2="359.15" y2="445.752" stroke="white" stroke-width="0.653595"/>
<line x1="411.437" y1="149.673" x2="411.437" y2="247.059" stroke="white" stroke-width="0.653595"/>
<line x1="411.437" y1="347.712" x2="411.437" y2="445.098" stroke="white" stroke-width="0.653595"/>
<line x1="463.725" y1="150.327" x2="463.725" y2="247.712" stroke="white" stroke-width="0.653595"/>
<line x1="463.725" y1="348.366" x2="463.725" y2="445.752" stroke="white" stroke-width="0.653595"/>
<line x1="516.012" y1="152.288" x2="516.012" y2="249.673" stroke="white" stroke-width="0.653595"/>
<line x1="516.012" y1="350.327" x2="516.012" y2="447.712" stroke="white" stroke-width="0.653595"/>
<line x1="568.3" y1="154.248" x2="568.3" y2="251.634" stroke="white" stroke-width="0.653595"/>
<line x1="568.3" y1="352.288" x2="568.3" y2="449.673" stroke="white" stroke-width="0.653595"/>
<line x1="620.588" y1="152.941" x2="620.588" y2="250.327" stroke="white" stroke-width="0.653595"/>
<line x1="620.588" y1="350.98" x2="620.588" y2="448.366" stroke="white" stroke-width="0.653595"/>
<path d="M97 498.042C97 508.775 95.9607 518.204 93.882 526.326C91.7363 534.449 88.7524 540.759 84.9304 545.255C81.1083 549.752 76.6828 552 71.6538 552H70.4468C65.3507 552 60.8917 549.752 57.0696 545.255C53.2476 540.759 50.2972 534.522 48.2186 526.544C46.0729 518.566 45 509.428 45 499.13C45 489.121 46.0058 480.273 48.0174 472.586C49.962 464.898 52.7782 458.879 56.4662 454.527C60.1541 450.176 64.479 448 69.441 448H73.0619L73.0619 534.812C78.3591 534.377 82.5164 530.678 85.5339 523.715C88.4842 516.753 89.9594 508.05 89.9594 497.607C89.9594 488.469 88.9871 481.434 87.0426 476.502C85.098 471.57 82.7847 467.799 80.1025 465.188L83.4217 450.393C85.5003 452.569 87.579 455.615 89.6576 459.531C91.7363 463.303 93.4797 468.307 94.8878 474.544C96.2959 480.636 97 488.469 97 498.042ZM66.5242 534.594L66.5242 465.406C61.9645 465.986 58.4107 469.395 55.8627 475.632C53.3146 481.724 52.0406 489.556 52.0406 499.13C52.0406 508.848 53.3146 516.826 55.8627 523.063C58.4107 529.3 61.9645 533.144 66.5242 534.594Z" fill="white"/>
<path d="M98 352L71.1207 310.249L45 350.722V330.485L65.4847 299.385V296.402L45 265.515V245.065L71.1207 285.751L98 244V264.45L76.865 296.402V299.385L98 331.337V352Z" fill="white"/>
<path d="M97 152H46.0356V135.741H52.027V132.785C50.2025 130.11 48.5752 125.817 47.1451 119.904C45.715 113.851 45 105.475 45 94.7769C45 85.9084 45.7643 77.8141 47.293 70.494C48.7724 63.0332 50.8928 57.1208 53.6543 52.757C56.4158 48.2523 59.7444 46 63.6401 46H64.6017C68.4481 46 71.7767 48.1819 74.5875 52.5458C77.3983 56.9097 79.5434 62.8221 81.0228 70.2829C82.5021 77.6029 83.2418 85.7676 83.2418 94.7769C83.2418 101.956 82.8966 108.08 82.2063 113.147C81.5652 118.074 80.7269 122.086 79.6913 125.183C78.6558 128.28 77.5955 130.673 76.5107 132.363V135.319H97V152ZM78.064 99.2112C78.064 88.5126 76.8805 79.8552 74.5135 73.239C72.0972 66.4821 68.744 63.1036 64.4538 63.1036H63.7881C59.4979 63.1036 56.1693 66.4821 53.8023 73.239C51.386 79.8552 50.1778 88.5126 50.1778 99.2112C50.1778 109.769 51.386 118.497 53.8023 125.394C56.1693 132.151 59.4979 135.53 63.7881 135.53H64.4538C68.744 135.53 72.0972 132.151 74.5135 125.394C76.8805 118.497 78.064 109.769 78.064 99.2112Z" fill="white"/>
</svg>
