<svg width="670" height="600" viewBox="0 0 670 600" fill="none" xmlns="http://www.w3.org/2000/svg">
<g clip-path="url(#clip0_14_28149)">
<rect width="669.281" height="600" fill="black"/>
<circle cx="-65.9823" cy="299.996" r="88.5059" stroke="white" stroke-width="3.0002"/>
<circle cx="-65.9821" cy="299.996" r="265.518" stroke="white" stroke-width="9.0006"/>
<circle cx="-65.9813" cy="299.996" r="247.816" stroke="white" stroke-width="8.40056"/>
<circle cx="-65.9815" cy="299.996" r="230.115" stroke="white" stroke-width="7.80052"/>
<circle cx="-65.9827" cy="299.996" r="212.414" stroke="white" stroke-width="7.20048"/>
<circle cx="-65.982" cy="299.996" r="194.713" stroke="white" stroke-width="6.60044"/>
<circle cx="-65.9822" cy="299.996" r="177.012" stroke="white" stroke-width="6.0004"/>
<circle cx="-65.9814" cy="299.996" r="159.311" stroke="white" stroke-width="5.40036"/>
<circle cx="-65.9816" cy="299.995" r="141.609" stroke="white" stroke-width="4.80032"/>
<circle cx="-65.9828" cy="299.996" r="123.908" stroke="white" stroke-width="4.20028"/>
<circle cx="-65.9821" cy="299.996" r="106.207" stroke="white" stroke-width="3.60024"/>
<circle cx="280.051" cy="299.995" r="8.85059" stroke="white" stroke-width="0.30002"/>
<circle cx="280.052" cy="299.996" r="26.5518" stroke="white" stroke-width="0.90006"/>
<circle cx="280.051" cy="299.996" r="24.7816" stroke="white" stroke-width="0.840056"/>
<circle cx="280.051" cy="299.996" r="23.0115" stroke="white" stroke-width="0.780052"/>
<circle cx="280.051" cy="299.996" r="21.2414" stroke="white" stroke-width="0.720048"/>
<circle cx="280.052" cy="299.995" r="19.4713" stroke="white" stroke-width="0.660044"/>
<circle cx="280.053" cy="299.996" r="17.7012" stroke="white" stroke-width="0.60004"/>
<circle cx="280.053" cy="299.996" r="15.9311" stroke="white" stroke-width="0.540036"/>
<circle cx="280.052" cy="299.995" r="14.1609" stroke="white" stroke-width="0.480032"/>
<circle cx="280.052" cy="299.996" r="12.3908" stroke="white" stroke-width="0.420028"/>
<circle cx="280.052" cy="299.996" r="10.6207" stroke="white" stroke-width="0.360024"/>
<circle cx="702.983" cy="299.996" r="88.5059" stroke="white" stroke-width="3.0002"/>
<circle cx="702.983" cy="299.996" r="265.518" stroke="white" stroke-width="9.0006"/>
<circle cx="702.984" cy="299.996" r="247.816" stroke="white" stroke-width="8.40056"/>
<circle cx="702.983" cy="299.996" r="230.115" stroke="white" stroke-width="7.80052"/>
<circle cx="702.982" cy="299.996" r="212.414" stroke="white" stroke-width="7.20048"/>
<circle cx="702.983" cy="299.996" r="194.713" stroke="white" stroke-width="6.60044"/>
<circle cx="702.983" cy="299.996" r="177.012" stroke="white" stroke-width="6.0004"/>
<circle cx="702.983" cy="299.996" r="159.311" stroke="white" stroke-width="5.40036"/>
<circle cx="702.983" cy="299.995" r="141.609" stroke="white" stroke-width="4.80032"/>
<circle cx="702.982" cy="299.996" r="123.908" stroke="white" stroke-width="4.20028"/>
<circle cx="702.983" cy="299.996" r="106.207" stroke="white" stroke-width="3.60024"/>
<circle cx="356.951" cy="299.996" r="8.85059" stroke="white" stroke-width="0.30002"/>
<circle cx="356.95" cy="299.996" r="26.5518" stroke="white" stroke-width="0.90006"/>
<circle cx="356.95" cy="299.996" r="24.7816" stroke="white" stroke-width="0.840056"/>
<circle cx="356.949" cy="299.996" r="23.0115" stroke="white" stroke-width="0.780052"/>
<circle cx="356.949" cy="299.996" r="21.2414" stroke="white" stroke-width="0.720048"/>
<circle cx="356.95" cy="299.996" r="19.4713" stroke="white" stroke-width="0.660044"/>
<circle cx="356.949" cy="299.996" r="17.7012" stroke="white" stroke-width="0.60004"/>
<circle cx="356.951" cy="299.996" r="15.9311" stroke="white" stroke-width="0.540036"/>
<circle cx="356.951" cy="299.996" r="14.1609" stroke="white" stroke-width="0.480032"/>
<circle cx="356.95" cy="299.996" r="12.3908" stroke="white" stroke-width="0.420028"/>
<circle cx="356.95" cy="299.996" r="10.6207" stroke="white" stroke-width="0.360024"/>
<circle cx="319.479" cy="-16.9821" r="88.5059" stroke="white" stroke-width="3.0002"/>
<circle cx="319.479" cy="-16.9821" r="265.518" stroke="white" stroke-width="9.0006"/>
<circle cx="319.48" cy="-16.982" r="247.816" stroke="white" stroke-width="8.40056"/>
<circle cx="319.479" cy="-16.9823" r="230.115" stroke="white" stroke-width="7.80052"/>
<circle cx="319.478" cy="-16.982" r="212.414" stroke="white" stroke-width="7.20048"/>
<circle cx="319.479" cy="-16.982" r="194.713" stroke="white" stroke-width="6.60044"/>
<circle cx="319.479" cy="-16.9822" r="177.012" stroke="white" stroke-width="6.0004"/>
<circle cx="319.48" cy="-16.9821" r="159.311" stroke="white" stroke-width="5.40036"/>
<circle cx="319.479" cy="-16.9821" r="141.609" stroke="white" stroke-width="4.80032"/>
<circle cx="319.478" cy="-16.9819" r="123.908" stroke="white" stroke-width="4.20028"/>
<circle cx="319.479" cy="-16.9821" r="106.207" stroke="white" stroke-width="3.60024"/>
<circle cx="318.599" cy="268.298" r="8.85059" stroke="white" stroke-width="0.30002"/>
<circle cx="318.598" cy="268.298" r="26.5518" stroke="white" stroke-width="0.90006"/>
<circle cx="318.598" cy="268.298" r="24.7816" stroke="white" stroke-width="0.840056"/>
<circle cx="318.598" cy="268.298" r="23.0115" stroke="white" stroke-width="0.780052"/>
<circle cx="318.598" cy="268.298" r="21.2414" stroke="white" stroke-width="0.720048"/>
<circle cx="318.598" cy="268.298" r="19.4713" stroke="white" stroke-width="0.660044"/>
<circle cx="318.598" cy="268.298" r="17.7012" stroke="white" stroke-width="0.60004"/>
<circle cx="318.598" cy="268.298" r="15.9311" stroke="white" stroke-width="0.540036"/>
<circle cx="318.599" cy="268.298" r="14.1609" stroke="white" stroke-width="0.480032"/>
<circle cx="318.599" cy="268.298" r="12.3908" stroke="white" stroke-width="0.420028"/>
<circle cx="318.599" cy="268.298" r="10.6207" stroke="white" stroke-width="0.360024"/>
<circle cx="319.479" cy="299.996" r="88.5059" stroke="white" stroke-width="3.0002"/>
<circle cx="319.479" cy="299.996" r="265.518" stroke="white" stroke-width="9.0006"/>
<circle cx="319.48" cy="299.996" r="247.816" stroke="white" stroke-width="8.40056"/>
<circle cx="319.479" cy="299.996" r="230.115" stroke="white" stroke-width="7.80052"/>
<circle cx="319.478" cy="299.996" r="212.414" stroke="white" stroke-width="7.20048"/>
<circle cx="319.479" cy="299.996" r="194.713" stroke="white" stroke-width="6.60044"/>
<circle cx="319.479" cy="299.996" r="177.012" stroke="white" stroke-width="6.0004"/>
<circle cx="319.48" cy="299.996" r="159.311" stroke="white" stroke-width="5.40036"/>
<circle cx="319.479" cy="299.995" r="141.609" stroke="white" stroke-width="4.80032"/>
<circle cx="319.478" cy="299.996" r="123.908" stroke="white" stroke-width="4.20028"/>
<circle cx="319.479" cy="299.996" r="106.207" stroke="white" stroke-width="3.60024"/>
<circle cx="318.599" cy="299.995" r="8.85059" stroke="white" stroke-width="0.30002"/>
<circle cx="318.598" cy="299.995" r="26.5518" stroke="white" stroke-width="0.90006"/>
<circle cx="318.598" cy="299.996" r="24.7816" stroke="white" stroke-width="0.840056"/>
<circle cx="318.598" cy="299.996" r="23.0115" stroke="white" stroke-width="0.780052"/>
<circle cx="318.598" cy="299.995" r="21.2414" stroke="white" stroke-width="0.720048"/>
<circle cx="318.598" cy="299.995" r="19.4713" stroke="white" stroke-width="0.660044"/>
<circle cx="318.598" cy="299.996" r="17.7012" stroke="white" stroke-width="0.60004"/>
<circle cx="318.598" cy="299.996" r="15.9311" stroke="white" stroke-width="0.540036"/>
<circle cx="318.599" cy="299.995" r="14.1609" stroke="white" stroke-width="0.480032"/>
<circle cx="318.599" cy="299.996" r="12.3908" stroke="white" stroke-width="0.420028"/>
<circle cx="318.599" cy="299.996" r="10.6207" stroke="white" stroke-width="0.360024"/>
<circle cx="319.479" cy="616.973" r="88.5059" stroke="white" stroke-width="3.0002"/>
<circle cx="319.479" cy="616.973" r="265.518" stroke="white" stroke-width="9.0006"/>
<circle cx="319.48" cy="616.973" r="247.816" stroke="white" stroke-width="8.40056"/>
<circle cx="319.479" cy="616.973" r="230.115" stroke="white" stroke-width="7.80052"/>
<circle cx="319.478" cy="616.973" r="212.414" stroke="white" stroke-width="7.20048"/>
<circle cx="319.479" cy="616.973" r="194.713" stroke="white" stroke-width="6.60044"/>
<circle cx="319.479" cy="616.973" r="177.012" stroke="white" stroke-width="6.0004"/>
<circle cx="319.48" cy="616.973" r="159.311" stroke="white" stroke-width="5.40036"/>
<circle cx="319.479" cy="616.973" r="141.609" stroke="white" stroke-width="4.80032"/>
<circle cx="319.478" cy="616.973" r="123.908" stroke="white" stroke-width="4.20028"/>
<circle cx="319.479" cy="616.974" r="106.207" stroke="white" stroke-width="3.60024"/>
<circle cx="318.599" cy="331.694" r="8.85059" stroke="white" stroke-width="0.30002"/>
<circle cx="318.598" cy="331.693" r="26.5518" stroke="white" stroke-width="0.90006"/>
<circle cx="318.598" cy="331.694" r="24.7816" stroke="white" stroke-width="0.840056"/>
<circle cx="318.598" cy="331.694" r="23.0115" stroke="white" stroke-width="0.780052"/>
<circle cx="318.598" cy="331.693" r="21.2414" stroke="white" stroke-width="0.720048"/>
<circle cx="318.598" cy="331.694" r="19.4713" stroke="white" stroke-width="0.660044"/>
<circle cx="318.598" cy="331.694" r="17.7012" stroke="white" stroke-width="0.60004"/>
<circle cx="318.598" cy="331.694" r="15.9311" stroke="white" stroke-width="0.540036"/>
<circle cx="318.599" cy="331.694" r="14.1609" stroke="white" stroke-width="0.480032"/>
<circle cx="318.599" cy="331.694" r="12.3908" stroke="white" stroke-width="0.420028"/>
<circle cx="318.599" cy="331.694" r="10.6207" stroke="white" stroke-width="0.360024"/>
</g>
<defs>
<clipPath id="clip0_14_28149">
<rect width="669.281" height="600" fill="white"/>
</clipPath>
</defs>
</svg>
