<svg width="40" height="40" viewBox="0 0 40 40" fill="none" xmlns="http://www.w3.org/2000/svg">
<rect width="40" height="40" rx="2" fill="#1E1E1E"/>
<path d="M6 17.9297V17C6 15.8954 6.89543 15 8 15H8.92969V17.9297H6ZM6 18.6914V17.9297H8.92969V18.6914H6ZM6 21.6211V18.6914H8.92969V21.6211H6ZM8.92969 17.9297V15H9.69141V17.9297H8.92969ZM9.69141 17.9297V15H12.6211V17.9297H9.69141ZM8.92969 21.6211V18.6914H9.69141V21.6211H8.92969ZM9.69141 21.6211V18.6914H12.6211V21.6211H9.69141ZM13.3828 25.3125V22.3828H16.3125V25.3125H13.3828ZM9.69141 25.3125V22.3828H12.6211V25.3125H9.69141ZM12.6211 25.3125V22.3828H13.3828V25.3125H12.6211ZM12.6211 21.6211V18.6914H13.3828V21.6211H12.6211ZM13.3828 21.6211V18.6914H16.3125V21.6211H13.3828ZM12.6211 17.9297V15H13.3828V17.9297H12.6211ZM13.3828 17.9297V15H16.3125V17.9297H13.3828ZM8 25.3125C6.89543 25.3125 6 24.4171 6 23.3125V22.3828H8.92969V25.3125H8ZM8.92969 25.3125V22.3828H9.69141V25.3125H8.92969ZM13.3828 22.3828V21.6211H16.3125V22.3828H13.3828Z" fill="#F2F2F2"/>
<path d="M23 17.9297V15H25.9297V17.9297H23ZM23 18.6914V17.9297H25.9297V18.6914H23ZM23 21.6211V18.6914H25.9297V21.6211H23ZM23 22.3828V21.6211H25.9297V22.3828H23ZM23 25.3125V22.3828H25.9297V25.3125H23ZM25.9297 17.9297V15H26.6914V17.9297H25.9297ZM26.6914 17.9297V15H29.6211V17.9297H26.6914ZM30.3828 25.3125V22.3828H33.3125V23.3125C33.3125 24.4171 32.4171 25.3125 31.3125 25.3125H30.3828ZM30.3828 21.6211V18.6914H33.3125V21.6211H30.3828ZM30.3828 22.3828V21.6211H33.3125V22.3828H30.3828ZM29.6211 17.9297V15H30.3828V17.9297H29.6211ZM30.3828 17.9297V15H31.3125C32.4171 15 33.3125 15.8954 33.3125 17V17.9297H30.3828ZM30.3828 18.6914V17.9297H33.3125V18.6914H30.3828ZM26.6914 25.3125V22.3828H29.6211V25.3125H26.6914ZM26.6914 21.6211V18.6914H29.6211V21.6211H26.6914ZM26.6914 22.3828V21.6211H29.6211V22.3828H26.6914ZM26.6914 18.6914V17.9297H29.6211V18.6914H26.6914Z" fill="#F2F2F2"/>
<path d="M15.0117 17.9297V15H17.9414V17.9297H15.0117ZM15.0117 18.6914V17.9297H17.9414V18.6914H15.0117ZM15.0117 21.6211V18.6914H17.9414V21.6211H15.0117ZM15.0117 22.3828V21.6211H17.9414V22.3828H15.0117ZM15.0117 25.3125V22.3828H17.9414V25.3125H15.0117ZM22.3945 25.3125V22.3828H25.3242V25.3125H22.3945ZM17.9414 25.3125V22.3828H18.7031V25.3125H17.9414ZM18.7031 25.3125V22.3828H21.6328V25.3125H18.7031ZM21.6328 25.3125V22.3828H22.3945V25.3125H21.6328Z" fill="#F2F2F2"/>
</svg>
