<svg width="29" height="11" viewBox="0 0 29 11" fill="none" xmlns="http://www.w3.org/2000/svg">
<path d="M0.761719 3.61719V2.6875C0.761719 1.58293 1.65715 0.6875 2.76172 0.6875H3.69141V3.61719H0.761719ZM0.761719 4.37891V3.61719H3.69141V4.37891H0.761719ZM0.761719 7.30859V4.37891H3.69141V7.30859H0.761719ZM3.69141 3.61719V0.6875H4.45312V3.61719H3.69141ZM4.45312 3.61719V0.6875H7.38281V3.61719H4.45312ZM3.69141 7.30859V4.37891H4.45312V7.30859H3.69141ZM4.45312 7.30859V4.37891H7.38281V7.30859H4.45312ZM8.14453 11V8.07031H11.0742V11H8.14453ZM4.45312 11V8.07031H7.38281V11H4.45312ZM7.38281 11V8.07031H8.14453V11H7.38281ZM7.38281 7.30859V4.37891H8.14453V7.30859H7.38281ZM8.14453 7.30859V4.37891H11.0742V7.30859H8.14453ZM7.38281 3.61719V0.6875H8.14453V3.61719H7.38281ZM8.14453 3.61719V0.6875H11.0742V3.61719H8.14453ZM2.76172 11C1.65715 11 0.761719 10.1046 0.761719 9V8.07031H3.69141V11H2.76172ZM3.69141 11V8.07031H4.45312V11H3.69141ZM8.14453 8.07031V7.30859H11.0742V8.07031H8.14453Z" fill="#F2F2F2"/>
<path d="M17.7617 3.61719V0.6875H20.6914V3.61719H17.7617ZM17.7617 4.37891V3.61719H20.6914V4.37891H17.7617ZM17.7617 7.30859V4.37891H20.6914V7.30859H17.7617ZM17.7617 8.07031V7.30859H20.6914V8.07031H17.7617ZM17.7617 11V8.07031H20.6914V11H17.7617ZM20.6914 3.61719V0.6875H21.4531V3.61719H20.6914ZM21.4531 3.61719V0.6875H24.3828V3.61719H21.4531ZM25.1445 11V8.07031H28.0742V9C28.0742 10.1046 27.1788 11 26.0742 11H25.1445ZM25.1445 7.30859V4.37891H28.0742V7.30859H25.1445ZM25.1445 8.07031V7.30859H28.0742V8.07031H25.1445ZM24.3828 3.61719V0.6875H25.1445V3.61719H24.3828ZM25.1445 3.61719V0.6875H26.0742C27.1788 0.6875 28.0742 1.58293 28.0742 2.6875V3.61719H25.1445ZM25.1445 4.37891V3.61719H28.0742V4.37891H25.1445ZM21.4531 11V8.07031H24.3828V11H21.4531ZM21.4531 7.30859V4.37891H24.3828V7.30859H21.4531ZM21.4531 8.07031V7.30859H24.3828V8.07031H21.4531ZM21.4531 4.37891V3.61719H24.3828V4.37891H21.4531Z" fill="#F2F2F2"/>
<path d="M9.77344 3.61719V0.6875H12.7031V3.61719H9.77344ZM9.77344 4.37891V3.61719H12.7031V4.37891H9.77344ZM9.77344 7.30859V4.37891H12.7031V7.30859H9.77344ZM9.77344 8.07031V7.30859H12.7031V8.07031H9.77344ZM9.77344 11V8.07031H12.7031V11H9.77344ZM17.1562 11V8.07031H20.0859V11H17.1562ZM12.7031 11V8.07031H13.4648V11H12.7031ZM13.4648 11V8.07031H16.3945V11H13.4648ZM16.3945 11V8.07031H17.1562V11H16.3945Z" fill="#F2F2F2"/>
</svg>
