<svg width="758" height="100" viewBox="0 0 758 100" fill="none" xmlns="http://www.w3.org/2000/svg">
<path d="M27.6961 67.2559C34.3521 71.7359 40.4961 76.7279 40.4961 84.5359C40.4961 85.3039 40.4961 86.0719 40.3681 86.8399C39.3441 93.8799 32.6881 99.5119 20.2721 99.7679H19.1201C16.4321 99.7679 14.0001 99.3839 11.8241 98.8719C7.98406 97.8479 5.04006 96.4399 4.01606 96.4399C2.60806 96.5679 1.96806 97.592 1.71206 99.896H0.560059V80.1839H1.71206C2.09606 91.4479 6.32006 98.6159 19.1201 98.6159H20.1441C27.6961 98.4879 32.3041 95.0319 32.4321 87.9919V87.7359C32.4321 80.0559 26.8001 75.7039 20.6561 71.6079C12.2081 66.2319 2.22406 61.6239 2.22406 51.1279V50.7439C2.48006 41.7839 11.0561 39.2239 19.8881 39.2239C24.4961 39.2239 28.9761 40.1199 32.0481 41.5279C32.9441 41.9119 33.7121 42.0399 34.3521 42.0399C36.0161 42.0399 36.6561 41.0159 36.7841 39.0959H37.9361V55.8639H36.7841C36.2721 47.5439 30.2561 40.2479 20.2721 40.2479H20.0161C13.7441 40.3759 11.1841 44.5999 11.1841 49.4639V50.7439C11.6961 57.9119 20.1441 62.2639 27.6961 67.2559Z" fill="#1E1E1E"/>
<path d="M52.5401 54.7119V49.2079C57.4041 42.9359 65.5961 40.3759 73.4041 40.2479C77.8841 40.2479 82.3641 41.0159 85.9481 42.6799C86.7161 43.0639 87.4841 43.4479 88.2521 43.9599C91.4521 46.0079 92.9881 48.3119 93.7561 51.7679C93.8841 52.4079 93.8841 53.0479 93.8841 53.6879C93.8841 63.1599 83.5161 65.3359 75.7081 67.3839C60.7321 71.9919 55.7401 79.0319 55.7401 85.3039V86.0719C56.2521 94.0079 61.6281 97.9759 67.9001 97.9759C68.6681 97.9759 69.3081 97.9759 70.0761 97.8479C76.6041 96.9519 86.2041 89.4 86.2041 82.2319C86.2041 80.6959 85.8201 79.2879 84.9241 77.8799C90.1721 76.0879 93.2441 73.7839 94.0121 69.0479V87.3519C94.0121 93.6239 96.3161 94.5199 101.436 94.5199V95.5439H100.54C97.9801 95.5439 95.8041 96.0559 94.0121 96.6959C92.2201 97.4639 90.8121 98.4879 89.9161 99.3839H88.6361C87.1001 98.4879 86.2041 95.4159 85.9481 90.2959V87.6079C82.3641 94.3919 75.4521 99.3839 66.8761 99.5119C63.0361 99.5119 59.4521 98.8719 56.5081 97.5919C51.5161 95.4159 48.0601 90.9359 48.0601 85.4319V85.1759C48.1881 79.2879 51.3881 74.1679 56.5081 71.3519C66.1081 66.1039 85.9481 68.4079 85.9481 54.4559C85.9481 45.4959 81.3401 41.3999 72.5081 41.3999H71.8681C63.4201 41.3999 55.2281 46.6479 52.5401 54.7119Z" fill="#1E1E1E"/>
<path d="M121.408 47.0319V54.1999C123.456 49.2079 135.36 39.6079 144.576 39.6079C147.52 39.6079 150.208 40.6319 152.256 43.0639L146.368 50.2319C145.216 47.0319 140.352 44.2159 135.744 44.2159C134.08 44.2159 132.416 44.5999 131.008 45.4959C127.808 47.5439 125.888 49.2079 124.224 51.5119C123.2 52.6639 122.432 54.0719 121.408 55.7359V89.7839C121.536 93.7519 123.712 97.5919 128.064 97.7199V98.7439H106.56V97.7199C111.168 97.5919 113.216 93.4959 113.344 89.3999V50.2319C113.344 45.1119 111.68 43.5759 106.56 43.4479V42.4239C110.528 42.4239 114.752 42.0399 117.952 39.6079H119.104C121.024 42.0399 121.28 44.3439 121.408 47.0319Z" fill="#1E1E1E"/>
<path d="M158.665 54.7119V49.2079C163.529 42.9359 171.721 40.3759 179.529 40.2479C184.009 40.2479 188.489 41.0159 192.073 42.6799C192.841 43.0639 193.609 43.4479 194.377 43.9599C197.577 46.0079 199.113 48.3119 199.881 51.7679C200.009 52.4079 200.009 53.0479 200.009 53.6879C200.009 63.1599 189.641 65.3359 181.833 67.3839C166.857 71.9919 161.865 79.0319 161.865 85.3039V86.0719C162.377 94.0079 167.753 97.9759 174.025 97.9759C174.793 97.9759 175.433 97.9759 176.201 97.8479C182.729 96.9519 192.329 89.4 192.329 82.2319C192.329 80.6959 191.945 79.2879 191.049 77.8799C196.297 76.0879 199.369 73.7839 200.137 69.0479V87.3519C200.137 93.6239 202.441 94.5199 207.561 94.5199V95.5439H206.665C204.105 95.5439 201.929 96.0559 200.137 96.6959C198.345 97.4639 196.937 98.4879 196.041 99.3839H194.761C193.225 98.4879 192.329 95.4159 192.073 90.2959V87.6079C188.489 94.3919 181.577 99.3839 173.001 99.5119C169.161 99.5119 165.577 98.8719 162.633 97.5919C157.641 95.4159 154.185 90.9359 154.185 85.4319V85.1759C154.313 79.2879 157.513 74.1679 162.633 71.3519C172.233 66.1039 192.073 68.4079 192.073 54.4559C192.073 45.4959 187.465 41.3999 178.633 41.3999H177.993C169.545 41.3999 161.353 46.6479 158.665 54.7119Z" fill="#1E1E1E"/>
<path d="M256.717 90.0399V57.2719C256.717 52.7919 256.333 47.9279 252.621 45.3679C250.829 44.2159 248.653 43.5759 246.221 43.5759C243.533 43.5759 240.717 44.3439 237.901 45.4959C233.421 47.5439 230.093 51.3839 227.405 55.3519V90.424C227.661 94.392 229.709 98.3599 234.189 98.3599V99.3839H212.685V98.3599C217.165 98.3599 219.341 94.1359 219.341 90.0399V11.0639C219.341 6.83994 216.781 4.66394 212.685 4.53594V3.51194C216.525 3.51194 223.181 3.12794 226.381 0.823944H227.405V54.0719C229.581 50.1039 232.269 47.5439 235.213 45.2399C238.925 42.2959 243.021 40.5039 247.373 40.3759H248.397C256.589 40.3759 264.013 46.0079 264.781 56.1199V90.424C265.037 94.392 267.085 98.2319 271.309 98.3599H271.565V99.3839H250.061V98.3599C254.541 98.3599 256.717 94.1359 256.717 90.0399Z" fill="#1E1E1E"/>
<path d="M327.189 97.9759V98.9999H305.685V97.9759C310.293 97.9759 312.341 93.7519 312.469 89.6559V10.6799C312.341 6.45594 309.909 4.27995 305.685 4.27995V3.12794C308.245 3.12794 310.421 2.99994 312.469 2.74394C315.541 2.23194 317.845 1.46394 319.381 0.439941H320.533V90.0399C320.661 94.0079 322.837 97.9759 327.189 97.9759Z" fill="#1E1E1E"/>
<path d="M342.55 21.1759C339.222 21.1759 336.534 18.4879 336.534 15.1599C336.534 11.9599 339.222 9.27194 342.55 9.27194C345.75 9.27194 348.566 11.9599 348.566 15.1599C348.566 18.4879 345.75 21.1759 342.55 21.1759ZM338.966 89.6559V50.1039C338.966 45.8799 336.406 43.7039 332.31 43.7039V42.5519C334.742 42.5519 337.046 42.4239 338.966 42.1679C342.166 41.6559 344.47 40.8879 346.006 39.8639H347.03V90.0399C347.286 94.0079 349.334 97.9759 353.814 97.9759V98.9999H332.31V97.9759C336.79 97.9759 338.966 93.7519 338.966 89.6559Z" fill="#1E1E1E"/>
<path d="M387.321 67.2559C393.977 71.7359 400.121 76.7279 400.121 84.5359C400.121 85.3039 400.121 86.0719 399.993 86.8399C398.969 93.8799 392.313 99.5119 379.897 99.7679H378.745C376.057 99.7679 373.625 99.3839 371.449 98.8719C367.609 97.8479 364.665 96.4399 363.641 96.4399C362.233 96.5679 361.593 97.592 361.337 99.896H360.185V80.1839H361.337C361.721 91.4479 365.945 98.6159 378.745 98.6159H379.769C387.321 98.4879 391.929 95.0319 392.057 87.9919V87.7359C392.057 80.0559 386.425 75.7039 380.281 71.6079C371.833 66.2319 361.849 61.6239 361.849 51.1279V50.7439C362.105 41.7839 370.681 39.2239 379.513 39.2239C384.121 39.2239 388.601 40.1199 391.673 41.5279C392.569 41.9119 393.337 42.0399 393.977 42.0399C395.641 42.0399 396.281 41.0159 396.409 39.0959H397.561V55.8639H396.409C395.897 47.5439 389.881 40.2479 379.897 40.2479H379.641C373.369 40.3759 370.809 44.5999 370.809 49.4639V50.7439C371.321 57.9119 379.769 62.2639 387.321 67.2559Z" fill="#1E1E1E"/>
<path d="M412.165 54.7119V49.2079C417.029 42.9359 425.221 40.3759 433.029 40.2479C437.509 40.2479 441.989 41.0159 445.573 42.6799C446.341 43.0639 447.109 43.4479 447.877 43.9599C451.077 46.0079 452.613 48.3119 453.381 51.7679C453.509 52.4079 453.509 53.0479 453.509 53.6879C453.509 63.1599 443.141 65.3359 435.333 67.3839C420.357 71.9919 415.365 79.0319 415.365 85.3039V86.0719C415.877 94.0079 421.253 97.9759 427.525 97.9759C428.293 97.9759 428.933 97.9759 429.701 97.8479C436.229 96.9519 445.829 89.4 445.829 82.2319C445.829 80.6959 445.445 79.2879 444.549 77.8799C449.797 76.0879 452.869 73.7839 453.637 69.0479V87.3519C453.637 93.6239 455.941 94.5199 461.061 94.5199V95.5439H460.165C457.605 95.5439 455.429 96.0559 453.637 96.6959C451.845 97.4639 450.437 98.4879 449.541 99.3839H448.261C446.725 98.4879 445.829 95.4159 445.573 90.2959V87.6079C441.989 94.3919 435.077 99.3839 426.501 99.5119C422.661 99.5119 419.077 98.8719 416.133 97.5919C411.141 95.4159 407.685 90.9359 407.685 85.4319V85.1759C407.813 79.2879 411.013 74.1679 416.133 71.3519C425.733 66.1039 445.573 68.4079 445.573 54.4559C445.573 45.4959 440.965 41.3999 432.133 41.3999H431.493C423.045 41.3999 414.853 46.6479 412.165 54.7119Z" fill="#1E1E1E"/>
<path d="M564.817 40.3759H565.841C574.033 40.3759 581.457 46.0079 582.225 55.9919V90.424C582.481 94.392 584.529 98.2319 588.753 98.3599H589.009V99.3839H567.505V98.3599C571.985 98.3599 574.161 94.1359 574.161 90.0399V57.2719C574.161 52.7919 573.777 47.9279 570.065 45.3679C568.273 44.2159 566.097 43.5759 563.665 43.5759C560.977 43.5759 558.161 44.3439 555.345 45.4959C551.377 47.2879 548.305 50.4879 545.873 53.9439C546.001 54.9679 546.129 55.3519 546.129 56.3759V90.424C546.385 94.392 548.433 98.2319 552.657 98.3599H552.785V99.3839H531.409V98.3599C535.889 98.3599 537.937 94.1359 538.065 90.0399V57.7839C538.065 53.1759 537.681 47.9279 533.969 45.3679C532.177 44.2159 530.001 43.5759 527.569 43.5759C524.881 43.5759 521.937 44.3439 519.249 45.4959C515.409 47.2879 512.465 50.2319 510.033 53.5599V90.424C510.161 94.392 512.337 98.3599 516.689 98.3599V99.3839H495.185V98.3599C499.793 98.3599 501.841 94.1359 501.969 90.0399V50.8719C501.969 46.5199 499.537 44.2159 495.185 44.0879V43.0639C499.153 43.0639 505.681 42.6799 508.881 40.3759H510.033V51.8959C511.825 49.2079 514.001 47.1599 516.561 45.2399C520.273 42.2959 524.369 40.5039 528.721 40.3759H529.873C537.169 40.3759 543.697 44.8559 545.617 52.7919C547.665 49.4639 550.097 47.2879 552.657 45.2399C556.369 42.2959 560.465 40.5039 564.817 40.3759Z" fill="#1E1E1E"/>
<path d="M609.033 64.1839C605.065 65.7199 602.377 68.4079 602.377 72.8879C602.377 74.1679 602.633 75.5759 603.017 77.1119C605.961 88.1199 612.745 94.9039 623.625 94.9039C624.393 94.9039 625.289 94.9039 626.057 94.7759C635.913 94.0079 645.129 88.7599 647.561 75.1919H648.713C646.921 88.2479 637.065 99.512 621.705 99.896H621.193C605.705 99.896 594.185 87.8639 594.185 69.9439V69.6879C594.185 52.2799 605.065 39.6079 621.193 39.6079H621.705C628.105 39.7359 634.121 41.5279 638.857 45.6239C642.057 48.1839 645.513 52.2799 645.513 56.6319C645.513 57.6559 645.385 58.5519 645.001 59.5759C643.977 62.3919 637.449 62.6479 629.769 62.6479H624.521C618.889 62.6479 613.129 62.6479 609.033 64.1839ZM601.481 72.7599C601.737 67.2559 605.065 64.5679 608.777 63.2879C619.401 59.5759 637.577 65.3359 637.961 54.4559C637.961 52.4079 637.321 49.9759 636.297 48.5679C633.737 43.7039 627.593 41.0159 621.065 41.0159C611.465 41.0159 600.969 47.2879 600.585 62.6479C600.585 64.9519 601.097 70.5839 601.481 72.7599Z" fill="#1E1E1E"/>
<path d="M668.658 47.0319V54.1999C670.706 49.2079 682.61 39.6079 691.826 39.6079C694.77 39.6079 697.458 40.6319 699.506 43.0639L693.618 50.2319C692.466 47.0319 687.602 44.2159 682.994 44.2159C681.33 44.2159 679.666 44.5999 678.258 45.4959C675.058 47.5439 673.138 49.2079 671.474 51.5119C670.45 52.6639 669.682 54.0719 668.658 55.7359V89.7839C668.786 93.7519 670.962 97.5919 675.314 97.7199V98.7439H653.81V97.7199C658.418 97.5919 660.466 93.4959 660.594 89.3999V50.2319C660.594 45.1119 658.93 43.5759 653.81 43.4479V42.4239C657.778 42.4239 662.002 42.0399 665.202 39.6079H666.354C668.274 42.0399 668.53 44.3439 668.658 47.0319Z" fill="#1E1E1E"/>
<path d="M727.434 41.3999C726.026 41.3999 724.618 41.5279 723.338 41.7839C719.626 42.6799 716.682 44.7279 714.25 48.0559C711.178 52.5359 709.642 58.6799 709.642 66.4879C709.642 72.5039 710.538 77.8799 712.202 82.7439C713.994 87.7359 716.426 91.5759 719.626 94.3919C720.778 95.4159 722.058 96.3119 723.338 96.952C725.514 97.976 727.946 98.4879 730.634 98.6159C733.962 98.4879 737.034 97.4639 739.722 95.4159C742.41 93.3679 744.586 90.2959 746.122 86.1999C747.786 82.2319 748.554 77.3679 748.554 71.8639C748.554 65.8479 747.658 60.5999 745.866 55.9919C744.074 51.3839 741.642 47.7999 738.442 45.2399C735.242 42.6799 731.658 41.3999 727.434 41.3999ZM729.226 99.896H728.458C720.522 99.896 713.994 97.0799 708.746 91.5759C703.498 86.0719 700.81 78.9039 700.81 70.0719V69.8159C700.81 61.1119 703.37 53.9439 708.49 48.1839C713.61 42.5519 720.394 39.7359 728.714 39.7359H729.226C738.314 40.1199 745.098 42.9359 749.834 48.4399C754.442 53.9439 756.874 60.9839 757.258 69.8159V71.0959C757.258 78.5199 754.826 85.0479 749.834 90.6799C744.842 96.4399 738.058 99.512 729.226 99.896Z" fill="#1E1E1E"/>
</svg>
