<svg width="200" height="28" viewBox="0 0 200 28" fill="none" xmlns="http://www.w3.org/2000/svg">
<path d="M31.4358 0.346717H31.8981C35.5964 0.346717 38.948 2.88932 39.2947 7.39666V22.9412C39.4103 24.7326 40.3349 26.4662 42.2418 26.5239H42.3574V26.9862H32.6493V26.5239C34.6718 26.5239 35.6542 24.617 35.6542 22.7678V7.97452C35.6542 5.952 35.4808 3.75611 33.805 2.60039C32.996 2.08031 32.0137 1.79138 30.9157 1.79138C29.7022 1.79138 28.4309 2.1381 27.1596 2.65817C25.3682 3.46718 23.9813 4.91184 22.8834 6.47207C22.9412 6.93437 22.999 7.10772 22.999 7.57002V22.9412C23.1145 24.7326 24.0391 26.4662 25.9461 26.5239H26.0039V26.9862H16.3535V26.5239C18.3761 26.5239 19.3006 24.617 19.3584 22.7678V8.20566C19.3584 6.12536 19.1851 3.75611 17.5093 2.60039C16.7003 2.08031 15.7179 1.79138 14.62 1.79138C13.4064 1.79138 12.0774 2.1381 10.8638 2.65817C9.13025 3.46718 7.80116 4.79627 6.70322 6.29871V22.9412C6.76101 24.7326 7.74338 26.5239 9.70811 26.5239V26.9862H0V26.5239C2.08031 26.5239 3.00489 24.617 3.06268 22.7678V5.0852C3.06268 3.12046 1.96474 2.08031 0 2.02252V1.56023C1.79138 1.56023 4.73848 1.38687 6.18314 0.346717H6.70322V5.54749C7.51223 4.33398 8.4946 3.4094 9.65032 2.5426C11.3261 1.21351 13.1753 0.404505 15.14 0.346717H15.6601C18.9539 0.346717 21.901 2.36924 22.7678 5.952C23.6924 4.44955 24.7904 3.46718 25.9461 2.5426C27.6219 1.21351 29.4711 0.404505 31.4358 0.346717Z" fill="#1E1E1E"/>
<path d="M51.3974 11.095C49.606 11.7884 48.3925 13.0019 48.3925 15.0245C48.3925 15.6023 48.508 16.238 48.6814 16.9314C50.0105 21.901 53.0732 24.9637 57.985 24.9637C58.3317 24.9637 58.7362 24.9637 59.083 24.9059C63.5325 24.5592 67.6931 22.19 68.7911 16.0646H69.3111C68.5021 21.9588 64.0526 27.044 57.1182 27.2174H56.8871C49.8949 27.2174 44.6941 21.7855 44.6941 13.6954V13.5798C44.6941 5.72085 49.606 0 56.8871 0H57.1182C60.0075 0.0577856 62.7235 0.866795 64.8616 2.71596C66.3063 3.87169 67.8665 5.72085 67.8665 7.68559C67.8665 8.14788 67.8087 8.55238 67.6353 9.01467C67.1731 10.286 64.2259 10.4015 60.7588 10.4015H58.3895C55.8469 10.4015 53.2465 10.4015 51.3974 11.095ZM47.988 14.9667C48.1035 12.4819 49.606 11.2683 51.2818 10.6905C56.0781 9.01467 64.2837 11.6151 64.4571 6.70322C64.4571 5.77864 64.1682 4.6807 63.7059 4.04505C62.5501 1.84916 59.7764 0.635651 56.8293 0.635651C52.4953 0.635651 47.7568 3.46718 47.5835 10.4015C47.5835 11.4417 47.8146 13.9843 47.988 14.9667Z" fill="#1E1E1E"/>
<path d="M78.3154 3.35161V6.58765C79.24 4.33398 84.6142 0 88.7748 0C90.1039 0 91.3174 0.46229 92.2419 1.56023L89.5838 4.79627C89.0637 3.35161 86.8678 2.08031 84.7875 2.08031C84.0363 2.08031 83.2851 2.25367 82.6494 2.65817C81.2048 3.58276 80.338 4.33398 79.5867 5.37413C79.1244 5.89421 78.7777 6.52986 78.3154 7.28108V22.6523C78.3732 24.4436 79.3556 26.1772 81.3203 26.235V26.6973H71.6122V26.235C73.6925 26.1772 74.6171 24.3281 74.6749 22.4789V4.79627C74.6749 2.48481 73.9237 1.79138 71.6122 1.73359V1.2713C73.4036 1.2713 75.3105 1.09794 76.7552 0H77.2753C78.1421 1.09794 78.2577 2.1381 78.3154 3.35161Z" fill="#1E1E1E"/>
<path d="M97.728 11.095C95.9367 11.7884 94.7232 13.0019 94.7232 15.0245C94.7232 15.6023 94.8387 16.238 95.0121 16.9314C96.3412 21.901 99.4038 24.9637 104.316 24.9637C104.662 24.9637 105.067 24.9637 105.414 24.9059C109.863 24.5592 114.024 22.19 115.122 16.0646H115.642C114.833 21.9588 110.383 27.044 103.449 27.2174H103.218C96.2256 27.2174 91.0248 21.7855 91.0248 13.6954V13.5798C91.0248 5.72085 95.9367 0 103.218 0H103.449C106.338 0.0577856 109.054 0.866795 111.192 2.71596C112.637 3.87169 114.197 5.72085 114.197 7.68559C114.197 8.14788 114.139 8.55238 113.966 9.01467C113.504 10.286 110.557 10.4015 107.089 10.4015H104.72C102.178 10.4015 99.5772 10.4015 97.728 11.095ZM94.3186 14.9667C94.4342 12.4819 95.9367 11.2683 97.6125 10.6905C102.409 9.01467 110.614 11.6151 110.788 6.70322C110.788 5.77864 110.499 4.6807 110.037 4.04505C108.881 1.84916 106.107 0.635651 103.16 0.635651C98.826 0.635651 94.0875 3.46718 93.9141 10.4015C93.9141 11.4417 94.1453 13.9843 94.3186 14.9667Z" fill="#1E1E1E"/>
<path d="M119.965 6.81879V4.33398C122.161 1.50245 125.86 0.346717 129.385 0.288932C131.407 0.288932 133.43 0.635651 135.048 1.38687C135.394 1.56023 135.741 1.73359 136.088 1.96474C137.532 2.88932 138.226 3.92947 138.573 5.48971C138.63 5.77864 138.63 6.06757 138.63 6.3565C138.63 10.6327 133.95 11.6151 130.425 12.5396C123.664 14.62 121.41 17.7982 121.41 20.6297V20.9765C121.641 24.5592 124.068 26.3506 126.9 26.3506C127.246 26.3506 127.535 26.3506 127.882 26.2928C130.829 25.8883 135.163 22.4789 135.163 19.2429C135.163 18.5494 134.99 17.9138 134.585 17.2781C136.955 16.4691 138.341 15.429 138.688 13.2909V21.5543C138.688 24.3859 139.728 24.7904 142.04 24.7904V25.2526H141.635C140.48 25.2526 139.497 25.4838 138.688 25.7727C137.879 26.1194 137.244 26.5817 136.839 26.9862H136.261C135.568 26.5817 135.163 25.1949 135.048 22.8834V21.6699C133.43 24.7326 130.309 26.9862 126.437 27.044C124.704 27.044 123.086 26.7551 121.757 26.1772C119.503 25.1949 117.943 23.1723 117.943 20.6875V20.5719C118.001 17.9138 119.445 15.6023 121.757 14.331C126.091 11.9618 135.048 13.0019 135.048 6.70322C135.048 2.65817 132.967 0.809009 128.98 0.809009H128.691C124.877 0.809009 121.179 3.17825 119.965 6.81879Z" fill="#1E1E1E"/>
<path d="M164.289 26.9862V20.8031C163.307 22.5945 162.093 23.7502 160.764 24.7904C159.089 26.0617 157.239 26.8707 155.275 26.9862H154.812C151.114 26.9862 147.762 24.3859 147.416 19.8785V5.0852C147.416 3.12046 146.318 2.08031 144.353 2.02252V1.56023C146.144 1.56023 149.092 1.38687 150.536 0.288932H151.056V19.1273C151.056 21.2076 151.23 23.5191 152.905 24.6748C153.714 25.2526 154.697 25.5416 155.795 25.5416C157.008 25.5416 158.28 25.1949 159.551 24.617C161.573 23.6924 163.076 22.0166 164.289 20.1674V5.0852C164.289 3.12046 163.191 2.08031 161.227 2.02252V1.56023C163.018 1.56023 165.965 1.38687 167.41 0.288932H167.93V22.3055C167.93 24.2703 169.086 25.1949 170.993 25.2526V25.7149C169.201 25.7727 166.254 25.9461 164.809 26.9862H164.289Z" fill="#1E1E1E"/>
<path d="M195.262 24.0391V23.9813C196.302 25.7149 198.093 26.2928 200 26.2928V26.8129H189.945V26.2928C191.101 26.235 191.794 25.9461 191.794 25.2526C191.794 24.9059 191.621 24.5592 191.39 24.0969L185.727 14.5622L178.908 24.0969C178.561 24.5592 178.446 24.9637 178.446 25.3104C178.446 25.9461 179.024 26.2928 180.121 26.2928V26.8129H173.303V26.2928C175.21 26.2928 177.232 25.8305 178.33 24.0969L185.438 14.0999L178.735 2.88932C177.752 1.21351 175.845 0.635651 173.996 0.577863V0.115573H184.051V0.577863C182.895 0.635651 182.202 0.924582 182.202 1.6758C182.202 2.02252 182.375 2.36924 182.606 2.88932L187.518 11.0372L192.546 2.9471C192.834 2.42703 193.008 2.02252 193.008 1.6758C193.008 0.982368 192.43 0.635651 191.216 0.577863V0.115573H198.035V0.577863C196.186 0.635651 194.279 1.15573 193.181 2.88932L187.807 11.5573L195.262 24.0391Z" fill="#1E1E1E"/>
</svg>
