<svg width="771" height="100" viewBox="0 0 771 100" fill="none" xmlns="http://www.w3.org/2000/svg">
<path d="M27.6961 67.2559C34.3521 71.7359 40.4961 76.7279 40.4961 84.5359C40.4961 85.3039 40.4961 86.0719 40.3681 86.8399C39.3441 93.8799 32.6881 99.5119 20.2721 99.7679H19.1201C16.4321 99.7679 14.0001 99.3839 11.8241 98.8719C7.98406 97.8479 5.04006 96.4399 4.01606 96.4399C2.60806 96.5679 1.96806 97.592 1.71206 99.896H0.560059V80.1839H1.71206C2.09606 91.4479 6.32006 98.6159 19.1201 98.6159H20.1441C27.6961 98.4879 32.3041 95.0319 32.4321 87.9919V87.7359C32.4321 80.0559 26.8001 75.7039 20.6561 71.6079C12.2081 66.2319 2.22406 61.6239 2.22406 51.1279V50.7439C2.48006 41.7839 11.0561 39.2239 19.8881 39.2239C24.4961 39.2239 28.9761 40.1199 32.0481 41.5279C32.9441 41.9119 33.7121 42.0399 34.3521 42.0399C36.0161 42.0399 36.6561 41.0159 36.7841 39.0959H37.9361V55.8639H36.7841C36.2721 47.5439 30.2561 40.2479 20.2721 40.2479H20.0161C13.7441 40.3759 11.1841 44.5999 11.1841 49.4639V50.7439C11.6961 57.9119 20.1441 62.2639 27.6961 67.2559Z" fill="#F2F2F2"/>
<path d="M52.5401 54.7119V49.2079C57.4041 42.9359 65.5961 40.3759 73.4041 40.2479C77.8841 40.2479 82.3641 41.0159 85.9481 42.6799C86.7161 43.0639 87.4841 43.4479 88.2521 43.9599C91.4521 46.0079 92.9881 48.3119 93.7561 51.7679C93.8841 52.4079 93.8841 53.0479 93.8841 53.6879C93.8841 63.1599 83.5161 65.3359 75.7081 67.3839C60.7321 71.9919 55.7401 79.0319 55.7401 85.3039V86.0719C56.2521 94.0079 61.6281 97.9759 67.9001 97.9759C68.6681 97.9759 69.3081 97.9759 70.0761 97.8479C76.6041 96.9519 86.2041 89.4 86.2041 82.2319C86.2041 80.6959 85.8201 79.2879 84.9241 77.8799C90.1721 76.0879 93.2441 73.7839 94.0121 69.0479V87.3519C94.0121 93.6239 96.3161 94.5199 101.436 94.5199V95.5439H100.54C97.9801 95.5439 95.8041 96.0559 94.0121 96.6959C92.2201 97.4639 90.8121 98.4879 89.9161 99.3839H88.6361C87.1001 98.4879 86.2041 95.4159 85.9481 90.2959V87.6079C82.3641 94.3919 75.4521 99.3839 66.8761 99.5119C63.0361 99.5119 59.4521 98.8719 56.5081 97.5919C51.5161 95.4159 48.0601 90.9359 48.0601 85.4319V85.1759C48.1881 79.2879 51.3881 74.1679 56.5081 71.3519C66.1081 66.1039 85.9481 68.4079 85.9481 54.4559C85.9481 45.4959 81.3401 41.3999 72.5081 41.3999H71.8681C63.4201 41.3999 55.2281 46.6479 52.5401 54.7119Z" fill="#F2F2F2"/>
<path d="M121.408 47.0319V54.1999C123.456 49.2079 135.36 39.6079 144.576 39.6079C147.52 39.6079 150.208 40.6319 152.256 43.0639L146.368 50.2319C145.216 47.0319 140.352 44.2159 135.744 44.2159C134.08 44.2159 132.416 44.5999 131.008 45.4959C127.808 47.5439 125.888 49.2079 124.224 51.5119C123.2 52.6639 122.432 54.0719 121.408 55.7359V89.7839C121.536 93.7519 123.712 97.5919 128.064 97.7199V98.7439H106.56V97.7199C111.168 97.5919 113.216 93.4959 113.344 89.3999V50.2319C113.344 45.1119 111.68 43.5759 106.56 43.4479V42.4239C110.528 42.4239 114.752 42.0399 117.952 39.6079H119.104C121.024 42.0399 121.28 44.3439 121.408 47.0319Z" fill="#F2F2F2"/>
<path d="M158.665 54.7119V49.2079C163.529 42.9359 171.721 40.3759 179.529 40.2479C184.009 40.2479 188.489 41.0159 192.073 42.6799C192.841 43.0639 193.609 43.4479 194.377 43.9599C197.577 46.0079 199.113 48.3119 199.881 51.7679C200.009 52.4079 200.009 53.0479 200.009 53.6879C200.009 63.1599 189.641 65.3359 181.833 67.3839C166.857 71.9919 161.865 79.0319 161.865 85.3039V86.0719C162.377 94.0079 167.753 97.9759 174.025 97.9759C174.793 97.9759 175.433 97.9759 176.201 97.8479C182.729 96.9519 192.329 89.4 192.329 82.2319C192.329 80.6959 191.945 79.2879 191.049 77.8799C196.297 76.0879 199.369 73.7839 200.137 69.0479V87.3519C200.137 93.6239 202.441 94.5199 207.561 94.5199V95.5439H206.665C204.105 95.5439 201.929 96.0559 200.137 96.6959C198.345 97.4639 196.937 98.4879 196.041 99.3839H194.761C193.225 98.4879 192.329 95.4159 192.073 90.2959V87.6079C188.489 94.3919 181.577 99.3839 173.001 99.5119C169.161 99.5119 165.577 98.8719 162.633 97.5919C157.641 95.4159 154.185 90.9359 154.185 85.4319V85.1759C154.313 79.2879 157.513 74.1679 162.633 71.3519C172.233 66.1039 192.073 68.4079 192.073 54.4559C192.073 45.4959 187.465 41.3999 178.633 41.3999H177.993C169.545 41.3999 161.353 46.6479 158.665 54.7119Z" fill="#F2F2F2"/>
<path d="M256.717 90.0399V57.2719C256.717 52.7919 256.333 47.9279 252.621 45.3679C250.829 44.2159 248.653 43.5759 246.221 43.5759C243.533 43.5759 240.717 44.3439 237.901 45.4959C233.421 47.5439 230.093 51.3839 227.405 55.3519V90.424C227.661 94.392 229.709 98.3599 234.189 98.3599V99.3839H212.685V98.3599C217.165 98.3599 219.341 94.1359 219.341 90.0399V11.0639C219.341 6.83994 216.781 4.66394 212.685 4.53594V3.51194C216.525 3.51194 223.181 3.12794 226.381 0.823944H227.405V54.0719C229.581 50.1039 232.269 47.5439 235.213 45.2399C238.925 42.2959 243.021 40.5039 247.373 40.3759H248.397C256.589 40.3759 264.013 46.0079 264.781 56.1199V90.424C265.037 94.392 267.085 98.2319 271.309 98.3599H271.565V99.3839H250.061V98.3599C254.541 98.3599 256.717 94.1359 256.717 90.0399Z" fill="#F2F2F2"/>
<path d="M340.439 97.9759V98.9999H318.935V97.9759C323.543 97.9759 325.591 93.7519 325.719 89.6559V10.6799C325.591 6.45594 323.159 4.27995 318.935 4.27995V3.12794C321.495 3.12794 323.671 2.99994 325.719 2.74394C328.791 2.23194 331.095 1.46394 332.631 0.439941H333.783V90.0399C333.911 94.0079 336.087 97.9759 340.439 97.9759Z" fill="#F2F2F2"/>
<path d="M355.8 21.1759C352.472 21.1759 349.784 18.4879 349.784 15.1599C349.784 11.9599 352.472 9.27194 355.8 9.27194C359 9.27194 361.816 11.9599 361.816 15.1599C361.816 18.4879 359 21.1759 355.8 21.1759ZM352.216 89.6559V50.1039C352.216 45.8799 349.656 43.7039 345.56 43.7039V42.5519C347.992 42.5519 350.296 42.4239 352.216 42.1679C355.416 41.6559 357.72 40.8879 359.256 39.8639H360.28V90.0399C360.536 94.0079 362.584 97.9759 367.064 97.9759V98.9999H345.56V97.9759C350.04 97.9759 352.216 93.7519 352.216 89.6559Z" fill="#F2F2F2"/>
<path d="M400.571 67.2559C407.227 71.7359 413.371 76.7279 413.371 84.5359C413.371 85.3039 413.371 86.0719 413.243 86.8399C412.219 93.8799 405.563 99.5119 393.147 99.7679H391.995C389.307 99.7679 386.875 99.3839 384.699 98.8719C380.859 97.8479 377.915 96.4399 376.891 96.4399C375.483 96.5679 374.843 97.592 374.587 99.896H373.435V80.1839H374.587C374.971 91.4479 379.195 98.6159 391.995 98.6159H393.019C400.571 98.4879 405.179 95.0319 405.307 87.9919V87.7359C405.307 80.0559 399.675 75.7039 393.531 71.6079C385.083 66.2319 375.099 61.6239 375.099 51.1279V50.7439C375.355 41.7839 383.931 39.2239 392.763 39.2239C397.371 39.2239 401.851 40.1199 404.923 41.5279C405.819 41.9119 406.587 42.0399 407.227 42.0399C408.891 42.0399 409.531 41.0159 409.659 39.0959H410.811V55.8639H409.659C409.147 47.5439 403.131 40.2479 393.147 40.2479H392.891C386.619 40.3759 384.059 44.5999 384.059 49.4639V50.7439C384.571 57.9119 393.019 62.2639 400.571 67.2559Z" fill="#F2F2F2"/>
<path d="M425.415 54.7119V49.2079C430.279 42.9359 438.471 40.3759 446.279 40.2479C450.759 40.2479 455.239 41.0159 458.823 42.6799C459.591 43.0639 460.359 43.4479 461.127 43.9599C464.327 46.0079 465.863 48.3119 466.631 51.7679C466.759 52.4079 466.759 53.0479 466.759 53.6879C466.759 63.1599 456.391 65.3359 448.583 67.3839C433.607 71.9919 428.615 79.0319 428.615 85.3039V86.0719C429.127 94.0079 434.503 97.9759 440.775 97.9759C441.543 97.9759 442.183 97.9759 442.951 97.8479C449.479 96.9519 459.079 89.4 459.079 82.2319C459.079 80.6959 458.695 79.2879 457.799 77.8799C463.047 76.0879 466.119 73.7839 466.887 69.0479V87.3519C466.887 93.6239 469.191 94.5199 474.311 94.5199V95.5439H473.415C470.855 95.5439 468.679 96.0559 466.887 96.6959C465.095 97.4639 463.687 98.4879 462.791 99.3839H461.511C459.975 98.4879 459.079 95.4159 458.823 90.2959V87.6079C455.239 94.3919 448.327 99.3839 439.751 99.5119C435.911 99.5119 432.327 98.8719 429.383 97.5919C424.391 95.4159 420.935 90.9359 420.935 85.4319V85.1759C421.063 79.2879 424.263 74.1679 429.383 71.3519C438.983 66.1039 458.823 68.4079 458.823 54.4559C458.823 45.4959 454.215 41.3999 445.383 41.3999H444.743C436.295 41.3999 428.103 46.6479 425.415 54.7119Z" fill="#F2F2F2"/>
<path d="M578.067 40.3759H579.091C587.283 40.3759 594.707 46.0079 595.475 55.9919V90.424C595.731 94.392 597.779 98.2319 602.003 98.3599H602.259V99.3839H580.755V98.3599C585.235 98.3599 587.411 94.1359 587.411 90.0399V57.2719C587.411 52.7919 587.027 47.9279 583.315 45.3679C581.523 44.2159 579.347 43.5759 576.915 43.5759C574.227 43.5759 571.411 44.3439 568.595 45.4959C564.627 47.2879 561.555 50.4879 559.123 53.9439C559.251 54.9679 559.379 55.3519 559.379 56.3759V90.424C559.635 94.392 561.683 98.2319 565.907 98.3599H566.035V99.3839H544.659V98.3599C549.139 98.3599 551.187 94.1359 551.315 90.0399V57.7839C551.315 53.1759 550.931 47.9279 547.219 45.3679C545.427 44.2159 543.251 43.5759 540.819 43.5759C538.131 43.5759 535.187 44.3439 532.499 45.4959C528.659 47.2879 525.715 50.2319 523.283 53.5599V90.424C523.411 94.392 525.587 98.3599 529.939 98.3599V99.3839H508.435V98.3599C513.043 98.3599 515.091 94.1359 515.219 90.0399V50.8719C515.219 46.5199 512.787 44.2159 508.435 44.0879V43.0639C512.403 43.0639 518.931 42.6799 522.131 40.3759H523.283V51.8959C525.075 49.2079 527.251 47.1599 529.811 45.2399C533.523 42.2959 537.619 40.5039 541.971 40.3759H543.123C550.419 40.3759 556.947 44.8559 558.867 52.7919C560.915 49.4639 563.347 47.2879 565.907 45.2399C569.619 42.2959 573.715 40.5039 578.067 40.3759Z" fill="#F2F2F2"/>
<path d="M622.283 64.1839C618.315 65.7199 615.627 68.4079 615.627 72.8879C615.627 74.1679 615.883 75.5759 616.267 77.1119C619.211 88.1199 625.995 94.9039 636.875 94.9039C637.643 94.9039 638.539 94.9039 639.307 94.7759C649.163 94.0079 658.379 88.7599 660.811 75.1919H661.963C660.171 88.2479 650.315 99.512 634.955 99.896H634.443C618.955 99.896 607.435 87.8639 607.435 69.9439V69.6879C607.435 52.2799 618.315 39.6079 634.443 39.6079H634.955C641.355 39.7359 647.371 41.5279 652.107 45.6239C655.307 48.1839 658.763 52.2799 658.763 56.6319C658.763 57.6559 658.635 58.5519 658.251 59.5759C657.227 62.3919 650.699 62.6479 643.019 62.6479H637.771C632.139 62.6479 626.379 62.6479 622.283 64.1839ZM614.731 72.7599C614.987 67.2559 618.315 64.5679 622.027 63.2879C632.651 59.5759 650.827 65.3359 651.211 54.4559C651.211 52.4079 650.571 49.9759 649.547 48.5679C646.987 43.7039 640.843 41.0159 634.315 41.0159C624.715 41.0159 614.219 47.2879 613.835 62.6479C613.835 64.9519 614.347 70.5839 614.731 72.7599Z" fill="#F2F2F2"/>
<path d="M681.908 47.0319V54.1999C683.956 49.2079 695.86 39.6079 705.076 39.6079C708.02 39.6079 710.708 40.6319 712.756 43.0639L706.868 50.2319C705.716 47.0319 700.852 44.2159 696.244 44.2159C694.58 44.2159 692.916 44.5999 691.508 45.4959C688.308 47.5439 686.388 49.2079 684.724 51.5119C683.7 52.6639 682.932 54.0719 681.908 55.7359V89.7839C682.036 93.7519 684.212 97.5919 688.564 97.7199V98.7439H667.06V97.7199C671.668 97.5919 673.716 93.4959 673.844 89.3999V50.2319C673.844 45.1119 672.18 43.5759 667.06 43.4479V42.4239C671.028 42.4239 675.252 42.0399 678.452 39.6079H679.604C681.524 42.0399 681.78 44.3439 681.908 47.0319Z" fill="#F2F2F2"/>
<path d="M740.684 41.3999C739.276 41.3999 737.868 41.5279 736.588 41.7839C732.876 42.6799 729.932 44.7279 727.5 48.0559C724.428 52.5359 722.892 58.6799 722.892 66.4879C722.892 72.5039 723.788 77.8799 725.452 82.7439C727.244 87.7359 729.676 91.5759 732.876 94.3919C734.028 95.4159 735.308 96.3119 736.588 96.952C738.764 97.976 741.196 98.4879 743.884 98.6159C747.212 98.4879 750.284 97.4639 752.972 95.4159C755.66 93.3679 757.836 90.2959 759.372 86.1999C761.036 82.2319 761.804 77.3679 761.804 71.8639C761.804 65.8479 760.908 60.5999 759.116 55.9919C757.324 51.3839 754.892 47.7999 751.692 45.2399C748.492 42.6799 744.908 41.3999 740.684 41.3999ZM742.476 99.896H741.708C733.772 99.896 727.244 97.0799 721.996 91.5759C716.748 86.0719 714.06 78.9039 714.06 70.0719V69.8159C714.06 61.1119 716.62 53.9439 721.74 48.1839C726.86 42.5519 733.644 39.7359 741.964 39.7359H742.476C751.564 40.1199 758.348 42.9359 763.084 48.4399C767.692 53.9439 770.124 60.9839 770.508 69.8159V71.0959C770.508 78.5199 768.076 85.0479 763.084 90.6799C758.092 96.4399 751.308 99.512 742.476 99.896Z" fill="#F2F2F2"/>
</svg>
